/* XPM */
static char *b933503ad8ac4b99e309bdb3911c4822mqzC9yteV7XnCu3h[] = {
/* columns rows colors chars-per-pixel */
"64 64 256 2 ",
"   c #907571",
".  c #818988",
"X  c #4F575F",
"o  c #4B4E50",
"O  c #747B7D",
"+  c #5B5F64",
"@  c #2E3944",
"#  c #4E6876",
"$  c #405057",
"%  c #49606B",
"&  c #374751",
"*  c #51636E",
"=  c #41545F",
"-  c #C1BFAC",
";  c #231F20",
":  c #C8C6AC",
">  c #DAD9CC",
",  c #D1CEB9",
"<  c #4D4A42",
"1  c #73724C",
"2  c #403F2F",
"3  c #444334",
"4  c #1F1B1C",
"5  c #27241E",
"6  c #302D24",
"7  c #2C2923",
"8  c #2A272D",
"9  c #292728",
"0  c #252121",
"q  c #272323",
"w  c #292426",
"e  c #2B2725",
"r  c #2D2A2A",
"t  c #373736",
"y  c #312E2F",
"u  c #343433",
"i  c #2F2D2B",
"p  c #2F2F2E",
"a  c #323130",
"s  c #3C3936",
"d  c #3A3634",
"f  c #3B382D",
"g  c #383432",
"h  c #39362D",
"j  c #38352D",
"k  c #35332B",
"l  c #343227",
"z  c #403C3A",
"x  c #595655",
"c  c #494544",
"v  c #635F5E",
"b  c #4D4A4A",
"n  c #706B6A",
"m  c #686564",
"M  c #706F71",
"N  c #8A8786",
"B  c #817D7D",
"V  c #7D7979",
"C  c #767273",
"Z  c #544E4C",
"A  c #666362",
"S  c #84807E",
"D  c #6A6868",
"F  c #5E5B5A",
"G  c #575350",
"H  c #454143",
"J  c #423F3B",
"K  c #979395",
"L  c #928F90",
"P  c #8E8B88",
"I  c #797677",
"U  c #9B9897",
"Y  c #797571",
"T  c #868480",
"R  c #9F9B99",
"E  c #A19C9F",
"W  c #A49F9F",
"Q  c #A7A1A3",
"!  c #A9A4A6",
"~  c #ACA6A8",
"^  c #AEA7AA",
"/  c #AFAAAC",
"(  c #B1ABAE",
")  c #DDD7D9",
"_  c #DDD6D7",
"`  c #B3ADB0",
"'  c #B5B0B1",
"]  c #B8B4B0",
"[  c #9D979E",
"{  c #DAD7D4",
"}  c #DED9D4",
"|  c #DAD9DB",
" . c #DADAD5",
".. c #DFDADA",
"X. c #D9D4D5",
"o. c #DBD5DD",
"O. c #DFDDD9",
"+. c #D9D6CF",
"@. c #DED2D7",
"#. c #D4D2D4",
"$. c #D7D2D2",
"%. c #D5CFD1",
"&. c #D2CCCD",
"*. c #CDCBCC",
"=. c #CBC7C7",
"-. c #C9C4C9",
";. c #C7C4C0",
":. c #C5C1C3",
">. c #C3BFBF",
",. c #C0BCBD",
"<. c #BFB9BB",
"1. c #BAB6B9",
"2. c #B6B5B6",
"3. c #B9B3B6",
"4. c #AEABA8",
"5. c #AFAFAB",
"6. c #BFBCB5",
"7. c #D3D0C6",
"8. c #BBB7AE",
"9. c #AEA89F",
"0. c #A8A6A3",
"q. c #D6D4CA",
"w. c #D2C8C7",
"e. c #98948B",
"r. c #B7B6A0",
"t. c #CCCABE",
"y. c #938C77",
"u. c #7C775B",
"i. c #807E5A",
"p. c #999680",
"a. c #7C7B4F",
"s. c #878471",
"d. c #C4C5B7",
"f. c #A8A498",
"g. c #A09C8D",
"h. c #807D69",
"j. c #979083",
"k. c #716E48",
"l. c #696746",
"z. c #716D57",
"x. c #8F8D5E",
"c. c #8B8969",
"v. c #767356",
"b. c #565638",
"n. c #B1AE9C",
"m. c #84814F",
"M. c #88855A",
"N. c #9E9E60",
"B. c #858364",
"V. c #93935D",
"C. c #99985F",
"Z. c #99956E",
"A. c #A7A389",
"S. c #ADAB8D",
"D. c #9F9C72",
"F. c #696753",
"G. c #5D5B4A",
"H. c #777165",
"J. c #A5A45E",
"K. c #8A884F",
"L. c #5D5D3C",
"P. c #777648",
"I. c #BFBB74",
"U. c #B5B669",
"Y. c #AFAC6D",
"T. c #BFBE6F",
"R. c #B0B063",
"E. c #C8C570",
"W. c #C7C778",
"Q. c #C3C56B",
"!. c #C2C275",
"~. c #9C9B52",
"^. c #979852",
"/. c #C5C26C",
"(. c #CCC96D",
"). c #CDC770",
"_. c #CCC969",
"`. c #CCCC6B",
"'. c #CCCA66",
"]. c #CAC963",
"[. c #C8C765",
"{. c #CDCA63",
"}. c #CDC865",
"|. c #CDC967",
" X c #CFCA6B",
".X c #CFC76B",
"XX c #C9CC65",
"oX c #CDCA74",
"OX c #C8C464",
"+X c #C5C55F",
"@X c #C5C466",
"#X c #C5C264",
"$X c #CDCC5F",
"%X c #C9C95C",
"&X c #C7C96D",
"*X c #C1C168",
"=X c #C1C25E",
"-X c #BDBE66",
";X c #C2BE63",
":X c #BBB86E",
">X c #BCBA64",
",X c #BBB764",
"<X c #C0BB62",
"1X c #939053",
"2X c #95905A",
"3X c #B5B164",
"4X c #B6B362",
"5X c #8D8D49",
"6X c #ABA663",
"7X c #ACAC59",
"8X c #B2B059",
"9X c #B2AD59",
"0X c #B6B35B",
"qX c #B6B65E",
"wX c #BAB75C",
"eX c #AFAB63",
"rX c #A9A857",
"tX c #A3A558",
"yX c #A2A251",
"uX c #9F9F52",
"iX c #A7A155",
"pX c #A79D50",
"aX c #B5B275",
"sX c #787937",
"dX c #737232",
"fX c #7E7B43",
"gX c #898142",
"hX c #716C37",
"jX c #A4A269",
"kX c #6A6736",
"lX c #CCC377",
"zX c #A29862",
"xX c #CABE73",
"cX c #C1B66C",
"vX c #C6C382",
"bX c #7A813E",
"nX c #818740",
"mX c #97934F",
"MX c #898A3D",
"NX c #A8A578",
"BX c #A89E5E",
"VX c #8F8645",
"CX c #6E7537",
"ZX c #C0AE6C",
"AX c #A28B4E",
"SX c #9C9651",
"DX c #7F723A",
"FX c #897C63",
"GX c #7E6C43",
"HX c #B6A267",
"JX c #675A2C",
"KX c #CCBD80",
"LX c #7A5D4B",
"PX c #8C534F",
"IX c #703D3A",
"UX c #703937",
/* pixels */
"4 4 4 4 4 4 4 4 4 4 4 4 ; ; ; ; w 0 q q q q 0 0 0 q q q w w q 9 w q w 9 9 r w w 8 8 8 8 8 8 8 8 8 8 w 8 8 r r r i i i r r 8 8 8 ",
"4 4 4 4 4 4 4 4 4 4 4 4 u x A n C z 0 0 0 q q q w e e e q q q w q z G r 9 w a A H w 8 8 8 8 8 8 8 b v g 8 8 8 8 9 9 r r 9 9 8 8 ",
"0 0 0 q q q q q w q q q d B M F C n w w 9 w w 9 e e e r r r r r r Z K H r 9 d N M i r y y y y y y x E c i y y p p p a a a a a a ",
"q q q 0 q q w 9 9 9 w w 0 x H c z M d s y J s q a b z q e d x c y a C b g H z Z C H z a a u H b t a V G c g a u u u u t t t t t ",
"q q q 4 4 ; 0 0 q 0 0 0 0 x F V z g m L S K N s B P N b d K P N b y n b I Q C b Q K L G a C 4.5.C y V ! R T d a u u u u u u u u ",
"q q q 0 0 0 0 0 q q w w q v Q U d w y B L x L m I y Z C c U c D D w D v P G g G W c x V b E G o U b T V z S x i p p p p p p a a ",
"q q w q q w 0 0 q w e e e v F C z 7 e n Z r s A U V S B z V V K D e C ] K d y G S g d B n B i i S A S x i x Y a k k k j j k k l ",
"q q w q q w 0 q q w e r e v c J k 7 5 m c 0 w v I z z H v S b v n i B K P x i G B y z N M P y g N A S G 6 A Y j j j j j j j h k ",
"q q w q q w q q e e e r z N V k 7 7 J P I d r J N v m M m V x N R v 0.C C ! v G 0.M N S c R I Y 0.< S e.n W x k j j j j j j h j ",
"w w w 9 0 q w e e r r e s A v k 7 7 F Y C z r r b T I H s n M x D D N v D W B c D N S c j < N W v j < B P n j j j j j j j j j k ",
"w w w 9 q 0 e e r r e e q q q e 7 7 7 i r i y y i a y a a y r a g A s z F Z a d a g a j h h k h k k j k k l k j j j j j j j g g ",
"w w w 9 q ; r r r r e w w q q e 7 7 7 i i a y y y y a x n n x m v I M x A v M Z a g g h h f f k k h h j k j j j j j j j j g g d ",
"w w 8 8 q 5 7 7 7 7 7 5 5 0 5 7 i 6 i p p p y p p u u v m m Y m n Y A B M B N A d j j j j j h h h j j j h h h j h h j j j j g d ",
"w w 8 8 q 5 7 7 7 7 7 5 5 5 e r i i i p p i i p a u t x F x m M n M M D D n V Z j j j j j j j j j j j j j j j j j h j j h d g g ",
"w w 8 8 q 5 7 e e 7 e w e 7 6 i i i p p p p p a a a t t t s s J z J c s s s c z j j j j j j j j j j g g g g g g g g g d s s g a ",
"w w w 8 q 5 7 e 7 7 e e 7 6 6 6 6 6 i p p a p a a a t t u t u k l k k j l k k h h h h j j j j j h g g d d g d g k g g d d s j l ",
"e 8 8 w 0 5 7 7 6 7 7 7 6 6 6 6 6 6 6 i i p i i r i i p a u j h h h h f f h l h f j k j j k j j j f s s s s s h k h f s s s f j ",
"y y y y e 5 6 6 l l l l j h f f h h h s p r a u t t t u i p s 2 2 2 2 2 2 2 2 f l l k h h j j f J 2 3 3 3 3 3 2 2 2 3 3 3 3 3 f ",
"G x x F Z z b.b.b.b.L.b.L.L.L.L.L.G.G.< 3 F m n M M M n m Z J G.l.l.l.l.k.k.b.3 G m C Y M D F b Z F.1 1 1 1 1 1 1 1 1 1 1 1 l.b.",
"V V B B V F l.a.fXa.k.L.a.K.K.nXK.i.b.F.j.U U [ [ E E E W W T G.i.C.C.C.2Xl.z.e.W / 4./ / / ( Q V G.c.jXN.yXiXJ.J.J.J.J.J.J.V.v.",
"L L K K K T k.C.^.5XL.L.K.~.~.uXN.k.v.9.5.] ] 3.1.1.1.1.<.<.6.f.z.N.4XR.a.s.6.-.-.w.w.=.=.=.=.&.=.f.v.NX!.-X*X*X*X*X-X-X-XU.M.S.",
"L K K K U L k.C.~.sXb.kXSXuXyXyX5Xk.n.] 8.8.<.<.,.>.,.>.-.:.;.;.U a.U.mXi.d.=.=.w.w.w.&.%.&.%.$.$.#.9.i.:XQ.[.[.[.].+X@X*X^.A.7.",
"L K K U R P 1 C.^.dXJXm.BXpXiXuXhXp.] ] 1.1.<.<.<.<.2.E L Q ,.-.-.s.M.P.r.*.*.*.-.:.&.&.%.$.$.$.$.#.%.p.C.W.[.[.[.].].`.>X1X, +.",
"K K U E R S u.C.^.5XVX~.BXpXiXSXk.4.3.1.<.<.,.,.<.^ + & & & M 1.*.0.G P t.*.;.P A + I 2.%.X.X.X.X.{ $.;.h.aXQ._._.{.$X_.4XzX7.%.",
"K [ [ E R H.m.^.^.uXiXuXpXpXiXVXi.] 3.1.<.<.,.,.<.D & * * * & O =.,.D ( 7.=.O $ % * = X 1.%.$.X.X.X.$.#.j.D.E. X}.$X$X].>X2X, $.",
"K [ [ R e.z.1X^.~.~.pXpXiXiXrXm.s.] 1.<.<.<.<.>.! o % = @ $ % = 2.:.B <.&.5.$ # % = # $ O %.$.#.#.#.#.X.5.c.W.{.|.{.]._.Q.1X- { ",
"K [ [ E j.z.V.^.~.uXpXiXiXiXrXfXy.1.1.<.,.,.,.>.E b * & p & * $ ! >.B ;.7.K = # & @ $ % * =.$.$.X.@.X.o.>.B.W.XXXX'._.).E.N.S.O.",
"[ [ E W e.z.V.~.uXuXiXiXiXiX6Xm.y.<.1.<.,.,.,.:.4.o * = @ $ * $ 5.>.B -.%.U = # & @ = # * -.$.+.+.@.@.| ;.B.!.XXXXXX_..X.XJ.A.} ",
"U [ E E R z.x.~.uXyXiXBXmXVXK.GXFX3.<.,.,.,.>.:.,.M = * % # = D ;.6.H.^ >.` X # % = # % M %.$.+.{ @.@.{ ;.B.vX(.].].].[.(.~.n.} ",
"R R E W W h.P.C.uXyX~.gXDXgXGXJXGXg.<.,.,.>.:.:.=.2.D & $ $ + 5.6.c.B.y.c.n.. $ % % = = ( @.@.{ | o.X.{ ' FXZXZXxXOX].&XU.x., } ",
"R E E Q W R v.K.uXiXgXDXzXHXAXAXzXFX8.>.>.>.:.-.;.;.<.E . K ,.*.f.Z.I.xXR.Z.d.U D X M / @.@.@.) | X.$.9.FXu.AXAXAX9X.XQ.V.r.> } ",
"U R W Q Q ! e.P.~.pXDXGXVXAXgXHXeXM.9.,.:.>.:.-.-.-.=.*.*.&.&.*.g.NX/.OXOXV.: q.*.-.%.) { _ _ o.o.o.<.y.ZXAXZXKXZXAXZXI.V.7.{ _ ",
"R E W Q ! ~ R v.^.pXgXBXBX6XfXDX6Xm.y.6.:.:.-.-.=.=.w.*.*.&.&.$.g.D.E.OX;X2X: +.+.{ | { } _ ) ) o...4.NX).xXzXZXZXVXAXcXC.q._ _ ",
"E E Q ! ~ ^ K u.N.iXgXmXeX~.kXhXY.^.kXp.>.-.-.=.t.t.*.&.&.&.%.6.z.x.W./.3Xx., { X.{ | { } } ) ..) } 4.Z.E.8X1XaX<XpXAXcXV.t.) _ ",
"E W Q ! ~ ^ T B.N.yX~.MXrX7XN.hXC.aXJ.k.y.6.;.t.t.w.*.&.%.w.9.u.Z.C.T./.SXk.n.{ X. .| ) } { } } { d.h.Z.E.5XkXJ.).cXAXlXN.r.} ) ",
"W Q Q ! ~ Q H.V.J.tXrXyX7XR.3X5XP.aX4X6XfXv.p.r.d.=.-.,.9.c.P.jXvXT.Q.rX5XY.a.j.d.+. .....O.O.7.9.h.D.vX!.fXN.!.@XSXHXlXeXA.{ _ ",
"W Q ! ! ^ R z.C.tXyXtX7X8X7X8XeXhX2X4XwX4XjXa.l.z.H.H.F.k.C.T.E.E.Q.0XMXU.oXI.x.k.y.n.6.;.] g.h.h.aXW.oX~.a.vX&X0XpXxX).3XD.X.X.",
"E Q Q ! ^ R v.N.J.iXJ.9X9X9X0X3XSXkXBX,X>X>X:XY.jXzXN.Y.I.E.Q.@X@X[.wXqX(._.(.).3X2Xi.a.i.i.x.NXKXE.Q.J.DXaXE.[.OXOX.X.XR.D.X.X.",
"W Q ! ~ / W v.N.yXrXrX9X9X8X0X0X3X5XhXjX:X-X>XT.T.E.E./.@X@X+XOX[.[._.[.[.|.'.'.`.oXlX!.!.E.).`.].(.~.dXeXoX&X'.}.}.}.}.eXS.) _ ",
"Q Q ~ ^ / ~ u.x.tX7X9X9X9X8X0XqXqX4X1XhXzX:X-X*X=X=X+X+X+X+X+X[.].'.].[.'.'.{.$X%X$X'..X.X{.%XXX-XMXsXR.E.&X].].{.{.}.@XN.r...) ",
"Q ! ~ ~ ^ ( e.1 N.7X8X8X9X9X8X4X0XqX>X~.hXm.Y.*X=X+X+X+X+X+X+X[.].{.{.{.].}.{.$X$X%X+XOX.X X/.~.dXK.I.W.[.'.].XXXX{.}./.V., ) ) ",
"Q ! ~ ^ / ( 5.s.a.tX8X8X8X9X4X3X9X,XwXwXeXgXhX5X8X/.E.*X@X@X[.[.}.|.'.'._.(. X'.]. XoXlXU.1XdXgXY.vXW.oX`.`.'.XXXX'. XtXNX+.) ) ",
"Q ! ~ / ( ( 5.5.s.1X7X9X8X4XeXgXVX3X>X>X>X,XrXVXdXfXmX6X:X!./.E.(.(.(.(.).E./.<X3XiX5XbXsX5XY.lX).(.`.Q.8X>X(.XXXX_.@XmX: { ) ) ",
"! ~ ~ / ( ( ' 1.p.K.R.9X8X4X5XhXnX4X>X<X<X;X;X;X:XJ.MXP.kXa.a.m.K.K.K.gXgXm.a.a.k.kX1XR./.oX(._.].`.Q.~.bX5X*X`.'.`.qXD.> { ) ) ",
"! ~ ~ / ( ` ' ' s.2XR.7X8X7XsXdX^.qXwX<X;X;X#X#X@XQ.Q.aXa.r.r.9.g.z.x.M.v.r.: 7.8.x.vXoX(._._.'.'._.yXbXbXnX>X_._.`.7XNX+.{ ) ) ",
"! ~ ~ / ( ` ' 4.u.jX7X9X8X7XsXK.R.>X<X<X<X;X#XOX[.+X+XR.M.q.X.{ *.c.!.Y.y.>  . .;.M.W.(.(._._._.'.>XnXbXbX5X!._._.`.qXD.+.} ) ) ",
"Q ! ~ / ( ` ] 0.i.Y.7X8X8X9XiXeX:X,X>X>X<X#X#X#XOX+X[.R.M.8.;.q.;.i.Q.R.x.q.7.&.8.i.W.`._._. X X XrXbXbXbXuXoX_._.`.-XZ.q.} ) ) ",
"! ! ~ / ( ' ] 9.u.6X7X9X8X0X4X,X>X,X,X>X<X<X#X+XOXOXOXT.2Xa.u.h.B.x.W.:XP.i.i.u.u.zXW._.'._._.(.(.^.bXbXnXU.).}._.`.>XZ.q.O.) ) ",
"! ~ ^ / ( ' ' 5.h.N.7X9X8X4X0XwX>X,X9XpX0X;X#X+X+X+X+X#X!.!.T.Y.6XI.E./.I.U.:XI.I.xXE.|.'.'._.).E.mXbXnXtX&X.X{.|.`.8XD.{ } ) ) ",
"! ~ / / ( ` ' ] y.c.Y.9X8X0X0XwX,XuXbXsXyX*X=X@X#XOX#X;X(.`.]..X.X.X.X X X|.}. XoXE.;X}._._._._.(.rXMXtXQ.`._.}.{.&X1Xr._ ) ) ) ",
"! ~ / / ( ` ' ] 9.z.D.3X0X0X0XwXrXbXsXCXuX*X=X+X@X[.E.4X,X/./.xXcXZXZXZXcXlX).)./.<X/._._._._._._.&X-X&X'.{._..X;XmXD.q.@.o.) ) ",
"! ~ / / ( ' 3.] 4.v u.Y.4X0XwXqX5XsXCXCXrX#X=X+X+X#X#XE.,X3X,XcXxXlXlXlXI.cXcXcX,XE.oX_._._._._._.XX[.[.XX$X|.).6Xl.r.| ) X.) ) ",
"Q ~ ^ / ` ' ] ] E I y.x.3X0XqXrXsXCXCXbXU.=X+X+X+X%X%XOXE.).oX X|. X X}..XlXxXlX). X}.|.'.'.'.'.'.XXXX`.XX{.{.E.2Xj.[ | ..{ ) ) ",
"! ~ ^ / ` ' ' ] L N ] i.eX0XqXyXdXCXCX^.-X=X=X=X+X%X%X%X%X_.(.(.(.(.(.(.(.)..X.X|.{.{.{.'.'.'.'.'.XX7X^./.'.{.#X2X8.N #. ._ ) ) ",
"! ^ / ( ` ' 2.2.B K r.a.7X0XqXuXdXCXnXU.*X=X=X;X#XOX%X%X%X].(.(.(.(.(.(.(.|.|.|.|.}.}.{.{.{.{.{.'.>XsXsX:X(.{.OX1Xd.T d. .| ) ) ",
"~ ^ / ( ` ' 2.1.I E g.m.R.0XqX7XnX5XR.=X=X;X;X*X*X#X+X+X+X_.`.[.}.].].].}.{.%X].}.}.].{.$X$X{.].'.~.dXgXI.). X XmX- P 6.O.| ) ) ",
"~ ^ / ( ` ' ' 3.C ! j.V.4XqXqX4X7XU.T.-XT.*X@X=X=X=X#XQ.E.!.W.)._.].XX].}.{.].[.OX].$X{.{.'.[._.OXMXCXtXW.)..X.XBXS.e.4.O.| ) ) ",
"~ ^ / ( ` ' ' 3.C / g.M.R.U.U.U.J.V.m.a.m.N.T.Q.Q.*XU.J.K.m.x.jXI.E.(.'.`.&X-XT.T./.&X_.`.`.(.(.oXN.V.I.W.).[.).6XA.f.W | | ) ) ",
"~ ^ / ( ` ' ' ] Y ^ ] u.a.K.a.1 k.B.p.f.A.u.a.x.x.fXP.c.A.n.f.y.u.zXKXxXU.1Xm.M.m.m.V.U.>X,XR.tX~.m.i.i.M.N.I.T.x.r.4.Q O.) ) ) ",
"~ ^ / ( ` ' ' ] Y E >.r.F.u.p.9.6.;.=.&.&.:.U P g.s.Y >.) o.o.o.8.LXLXLXJXp.t.7.7.- h.l.i.i.B.B.p.8.7.t.S.c.1 a.S.q.R 0.O._ ) ) ",
"~ ^ / ( ` ' ' ] P A S L n f.;.:.:.-.*.*.*.*.%.&.#.#.! B / *.| *.T G PXPXZ N #.| *.E T 8.7.%.X.) ..) ..}  .> n.h.r.R I 2...X.) ) ",
"~ ^ / ( ` ' 3.] ] Q A D G.e.:.:.-.-.=.*.*.*.*.%.#.#.o.<.P B L T P LXPXPX  L N K B R =. .+.} } ) _  . . . . .8.F.F.V :.X..._ _ ) ",
"! ~ ^ ( ` ` ' ] 2.<.T c.M.y.:.=.-.-.=.*.*.&.&.&.%.#.#.#.%.>.! 2.#.n UXIX9.&.W ^ =. .{ { +.+.{ o.{ {  . .{ { ' Z.zXg.O. .) ) _ ) ",
"! ~ ^ ( ` ` ' ] 2.1.e.i.Z.y.>.>.:.:.;.-.=.*.&.%.%.%.%.%.%.X._  .;.LXPXPXj._ ......| | |  . .| |  . . . .{ O.5.Z.V.A. .| ) ) _ ) "
};
