/* XPM */
static char *c6018e0125544c73ec17a9b7365c16d46rNYE7w2i6ukP06X[] = {
/* columns rows colors chars-per-pixel */
"64 64 256 2 ",
"   c #6A4723",
".  c #7B562B",
"X  c #623F21",
"o  c #77462A",
"O  c #8D4B26",
"+  c #6F371E",
"@  c #471F14",
"#  c #5C2C1D",
"$  c #331A11",
"%  c #8E582C",
"&  c #A27240",
"*  c #340C0D",
"=  c #93BCD6",
"-  c #9BC1DA",
";  c #A3C5DC",
":  c #ABC9DC",
">  c #B1CCDA",
",  c #AEC9D6",
"<  c #ACC5D4",
"1  c #A8C2D3",
"2  c #A2BDD2",
"3  c #9EBACF",
"4  c #93B6D0",
"5  c #8BB0CC",
"6  c #C3B7A2",
"7  c #9FA99F",
"8  c #AEBBBB",
"9  c #D1DFD5",
"0  c #DEFFF4",
"q  c #CBF0E0",
"w  c #C6E8DA",
"e  c #B3D0D8",
"r  c #BFDDE8",
"t  c #BAD8E4",
"y  c #B6D5E2",
"u  c #B4D1DF",
"i  c #ADCEE2",
"p  c #A3CAE2",
"a  c #BBA889",
"s  c #A68A6D",
"d  c #957B5A",
"f  c #7A6549",
"g  c #836347",
"h  c #936C49",
"j  c #987552",
"k  c #A9815A",
"l  c #AA8A57",
"z  c #AE9152",
"x  c #B79A49",
"c  c #BEA554",
"v  c #A79142",
"b  c #A99745",
"n  c #C1B252",
"m  c #B8AC49",
"M  c #AD9C41",
"N  c #B0A049",
"B  c #9C873F",
"V  c #7A6230",
"C  c #8D7134",
"Z  c #927837",
"A  c #856831",
"S  c #916C37",
"D  c #9A7C38",
"F  c #AA8C40",
"G  c #CDB054",
"H  c #E4C667",
"J  c #D6B95F",
"K  c #CEB362",
"L  c #C5AB5F",
"P  c #D5BF64",
"I  c #E2CB6E",
"U  c #C0B36E",
"Y  c #F5F791",
"T  c #F8FD8E",
"R  c #F8F781",
"E  c #FAF272",
"W  c #F8EE76",
"Q  c #F8EC82",
"!  c #F4E479",
"~  c #F5DD76",
"^  c #F0D771",
"/  c #EACF68",
"(  c #EED564",
")  c #F6E16E",
"_  c #F2DE69",
"`  c #EBDB61",
"'  c #F0E05C",
"]  c #E9DB4E",
"[  c #DDCF51",
"{  c #E5D55A",
"}  c #E5D055",
"|  c #C6AD4D",
" . c #5C5A23",
".. c #5A5027",
"X. c #705C2C",
"o. c #594727",
"O. c #4D4522",
"+. c #483829",
"@. c #45312C",
"#. c #35251C",
"$. c #3F2C21",
"%. c #907D43",
"&. c #958244",
"*. c #6A572B",
"=. c #4D3D1F",
"-. c #75682A",
";. c #7C6F2E",
":. c #68662E",
">. c #4D4932",
",. c #020103",
"<. c #0D0709",
"1. c #170F0D",
"2. c #231410",
"3. c #181717",
"4. c #211E18",
"5. c #242523",
"6. c #2F373A",
"7. c #2B302C",
"8. c #3F453B",
"9. c #444F50",
"0. c #54636A",
"q. c #515C5A",
"w. c #627278",
"e. c #889EAC",
"r. c #8EA5B4",
"t. c #8A936A",
"y. c #73806C",
"u. c #A1BEAF",
"i. c #B2C8AF",
"p. c #DAD6A2",
"a. c #E8F35F",
"s. c #D1D45F",
"d. c #9A9A51",
"f. c #9E9345",
"g. c #86A4BF",
"h. c #94B336",
"j. c #7F9285",
"k. c #8EA096",
"l. c #72848E",
"z. c #91A9B8",
"x. c #A5BFCE",
"c. c #A1BAC9",
"v. c #9CB5C5",
"b. c #97B0C3",
"n. c #88AAC3",
"m. c #7DA0BB",
"M. c #7896B2",
"N. c #6D8BAB",
"B. c #68839D",
"V. c #647B90",
"C. c #58738A",
"Z. c #26394D",
"A. c #344962",
"S. c #3E546A",
"D. c #445C72",
"F. c #52687D",
"G. c #7F8352",
"H. c #8C8C58",
"J. c #716E47",
"K. c #7A7756",
"L. c #A4A370",
"P. c #5B5D41",
"I. c #63694B",
"U. c #788C9B",
"Y. c #7E929F",
"T. c #8497A4",
"R. c #5E6866",
"E. c #67725F",
"W. c #704F2A",
"Q. c #4D2D19",
"!. c #8C6134",
"~. c #BD9466",
"^. c #C7AC75",
"/. c #9D845D",
"(. c #B39D73",
"). c #BAA570",
"_. c #AE995D",
"`. c #A6925E",
"'. c #C2B976",
"]. c #CDC479",
"[. c #B5AE6C",
"{. c #A7A559",
"}. c #B3AA5A",
"|. c #CDC760",
" X c #C1B757",
".X c #DED164",
"XX c #D6CB62",
"oX c #E2D670",
"OX c #F8E667",
"+X c #F8EA6E",
"@X c #F9F771",
"#X c #F7FD74",
"$X c #F2FA6E",
"%X c #F6FF6E",
"&X c #EDF26B",
"*X c #EBE965",
"=X c #E2E064",
"-X c #DDD95D",
";X c #D7D656",
":X c #F9FA5F",
">X c #F4F460",
",X c #F1EF60",
"<X c #E5E65C",
"1X c #DEE25A",
"2X c #D9DC55",
"3X c #F1FE63",
"4X c #EDF766",
"5X c #E6EE61",
"6X c #DFE864",
"7X c #4D4F38",
"8X c #3F3E26",
"9X c #2C2B1C",
"0X c #37341D",
"qX c #7E7539",
"wX c #858236",
"eX c #908534",
"rX c #9C8C39",
"tX c #9D9335",
"yX c #B3A53A",
"uX c #717427",
"iX c #817C30",
"pX c #8F8E3C",
"aX c #9B9A3A",
"sX c #A7A440",
"dX c #9EA040",
"fX c #ADAA45",
"gX c #B7B246",
"hX c #C1B847",
"jX c #C7BF4A",
"kX c #C9C74F",
"lX c #C2BE56",
"zX c #D2D154",
"xX c #D2CB52",
"cX c #D0C551",
"vX c #CEC054",
"bX c #DCC757",
"nX c #DCC156",
"mX c #E6CB59",
"MX c #CFB753",
"NX c #BAA248",
"BX c #C1A948",
"VX c #B49342",
"CX c #A68543",
"ZX c #9F7D4B",
"AX c #BE9E5C",
"SX c #8C754B",
"DX c #73533E",
"FX c #866B4D",
"GX c #5A4739",
"HX c #765C44",
"JX c #684D3D",
"KX c #533C33",
"LX c #5D4136",
"PX c #62453A",
"IX c #55362A",
"UX c #3E2C2C",
/* pixels */
"m.m.n.n.r.0.7.tXfX[ ' ] ] cXcX{ ' ' ' ` ' _ .XXX_ _ _ ) ) ' [ [ =Xs.zX.X.X{ }. X_ ) _ ` ' +XE @X@X@X@X@X&X5X4X4X$X Xq.T.v.1 , > ",
"m.n.n.n.e.q.9XpXhX] ] } [ ] { [ [ xXjXMXmX( vXvX|..X) _ ) +X` hXkXlXlX.X) } n MX/ ( _ ` bXbX` W @X@X@X$X$X$X$X$X$X=XE.Y.v.x.< > ",
"n.b.b.n.e.0.9XiXsX] [ iXM ' ] [ m M nX} bXnXc L MXvXXX` _ OX+X{ gX|.n XX{ n NXMXMXMXMXMXnXbXvX( +X>X>X4X$X$X#X#X#Xs.q.U.c.x.< , ",
"3 c.c.v.e.l.9.:.sXxXM 0XrXOX] hXyXmX( BXNXx z P / ( oXXX` oX.X[ m |. Xn n b P / P NXc NXNXM N bX*X&X>X&X4X$XlX{.&X{.9.U.x.< < < ",
": < , 1 z.l.0.7XfXjX;.0Xb ' jXhX} ` NXNXnXMXG ( ( / ! .XvXXXXXn sXlXM BXN I ^ / / | P P G | v M +X,X,X&X4X-X8X0X=X{.8.T.x.< < < ",
"> : > < T.w.q.8XaXhX .0Xm [ hXhX{ NXv nXmXmX/ OX) MX( ^ G n | MXtX XM b MXbXbX^ ^ H H ^ / ^ nXf.=X=X*X,X>XkX9X9Xs.d.9.e.x.1 x.x.",
": : : 1 e.R.9.7.iXhXX.-.{ cXBXbXNXA x nXmX( ( OX+X( ) ( mXVX| | rXtXB F | P ! ! ^ H J J ^ ^ ~ XX|.-X-X,X>XkX9XO.@X|.q.r.c.x.x.x.",
"> : : < c.l.9.7.uXhXtXlX-XgXvXBXo.A G nX( _ ( ( +X+X+X) ( BXF BXv rX;.v J ~ ^ H H H / J / ~ ~ ^ vX|.kX*X,X;X8XwX#Xd.0.z.c.2 1 < ",
": : : > , r.9.9XiXjX[ ` hXjXvX*.X.v nXmX( ) OXOX+X! W _ ) bXCXVXB C A x / H G H H H H H ^ ! ~ ^ oXgXlXzX<X4XdXs.#X}.w.z.v.c.1 < ",
"; : > > > v.0.0XeXM bX-Xm bXZ A `.K / I ^ ) ) oXoXXXW W W _ BXF Z X.C c H x c G K MXK I ^ ~ ^ ~ Q  X-X;X5X$X#X#X#X{.V.b.v.c.2 1 ",
"; : > i , v.w.0X*.  G [ hXn *.o.X.x K J ~ ~ |.XX|. XW Q Q ) nXS . X.ZXAXL D L F G K P oX^ ~ ~ ~ Q .X-X*X5X$X#X#X@XG.V.z.b.b.z.r.",
"; : > > , e.w.0X=.+ VXcXcXeX+.o.z x c H / H }.{.}.{..X! ! ! bXA X g ZXl Z CX_._.P L P I P ! ! ~ Q ! s.&X6X4X#X#X=XR.l.Y.Y.U.0.q.",
"; : : > < e.q.0XO.Q.D vXvX*.#.A z z J H z l `._.d.f. XoX^ ! ( C #.g j h h AXl %.l CXx L P Q Q ^ ~ ! XX,X1X5X#X#X X0.B.V.C.S.$.# ",
"- ; ; : < v.w.0Xo.V N vXn =.=.CXz z J AXf _.L K U }.{.! +X! / CX2.JXZXh j h FXLXf %.z `.'.Y Y ~ ~ ~ oX-X1X6X$X%XH.w.B.F.S.5.* * ",
"= - - ; ; 2 Y.8.-.B n cXm +.-.b CXl K SXSX_.L U U ].}.XXW ! ( VX4.$.j j k g KXJXFXz L }.U Y Y Q ~ ^ =XxX1X1X$X%XG.V.U.F.6.2.<.* ",
"5 4 = = = 4 m.9.wX XhXxXN +.%.CXZXl AXDX/.`.K U U ].[. XE W OXx #.@.HXk l g KXf d z L _.'.Y Y R ! ~ ! zX1X2X&X#XG.l.T.C.6.3.<.<.",
"5 5 4 = = 5 m.q.iXxXxXcXrX=.%.ZXZXl z HXd l _.`.'.].{.XXE E OXNX#.+.JXg j HXGXFXSX`.)._.].T R R ! ~ ! s.1X1X6X%XG.l.e.B.S.5.<.1.",
"- - - ; ; - 5 F.;.xX-XjX;.=.%.ZXj k l h f j l ZX`.'.U W E E OXBX$.@.JXDXd DXHXFXHX/.(.l oXT R R Q ! +X-X1X<X6X%Xt.U.z.M.C.A.3.1.",
"p p i i i i 1 l.:.jXzXlX..=.&.ZXh ZXk j g h h k k j P W E E +Xx #.$.PXJXj JXHXSXDXR.a h _.Y R R R Q W =X<X<X6X%X{.U.b.g.U.F.7.<.",
"p p p i i i : T.:.jXkXgX..O.&.&.h j FXh h DX~.6 7 (.l ) E E cX:.qX+.IXPXg JXLXDXFXB.9 ~.!.! T R R E E ;X1X<X6X%X[.Y.v.b.g.U.S.3.",
"; p p i i u > e.J.jX;XgXO.o.&.%.g h DXDXo X ^.C.n.p.j .X+X*XiXiXXX/.@.PXJXJXKXIXd A.8 ^.ZXQ T T R @XE -X<X*X6X%XL.T.v.3 b.g.V.Z.",
"- ; p i i t u e.J.kX2X1X:.O.SXHXh FXJXIX* # l A.N.i.k D { lXuXtX`  X@.PXPXPXIX$ h 9.7 ~.K T T T R R E =X<X<X6X$XH.Y.z.2 2 4 M.D.",
"= - ; p i u : U.qXkX2X1X-.=.*.DXFXDXDXDX  # l A.S.k.k CX{ fXuXyX' |.+.LXLXPXLXW.o k ).k I R T T R R E =X=X2X6X5XE.l.e.< : ; n.V.",
"5 4 = - ; - 5 C.iXxX1XzX*.=.KXFXg JXDXDXS o & K.F.a h & c sXuXyX' XX+.KXKXLXKXB S & k AX^ R T R R R E -X-X1X1X6Xq.w.e.; : - 5 M.",
"M.m.m.g.n.m.M.0.iXzX<XhX;.=.JXJXHXg DXLXD C # l ~.h !.CXMXsXuXyX' XX@.@.KXKXIXv F S ZXL .XR R R E W W XX;X6X6X6XP.0.r.1 ; 4 n.m.",
"C.C.V.B.B.B.V.9.wXzX1XgXwXo.GXKXLXJXKXIXB m   Q.# o ~.c mXaX:.yX` XX$.@.PXLX$.%.%.A CXMX.XW @XR E Q W cX=X5X5X&XP.0.r.2 ; 4 m.M.",
"A.S.S.D.D.F.D.6.eXzX2XgXpXX.$.+.LX+.@.UX&.xXz ZXk CXx G mXrX:.tX{ P $.KXDXPX$.%.CXA VXJ |.E @XE W Q W vX*X*X&X$XJ.0.e.b.4 g.N.B.",
"D.D.D.S.S.S.A.7.wXxXzXhXaXqX#.@.+.@.UXUX%.m *.  . D L nXbXeX:.tX} n #.KXPXPX#.l L z J K oXW W W oXoX!  X&X5X4X%XG.F.N.M.M.N.N.N.",
"M.m.m.M.N.U.V.8.wXxXxXhXsXwX=.#.@.UXUX+.%.b %.%.v c | mXvXrX .eXmXM 4.KXPXPX$.%.L x K J ^ _ ` +X_ J XXkX$X4X$X%XG.F.B.N.N.N.M.M.",
"n.5 4 3 2 2 v.q.eXzXkXgXsXpX:.#.@.UXUXGX%.dXL K | J G bXnXtXO.iXbX&.2.@.PXLXKXHXl L P J ~ _ ( ) ) P  X=X#X$X%X$XK.D.C.V.V.B.B.B.",
"5 5 5 4 3 1 3 0.eXzXkXdXdXaXeX$.@.@.KXf H.f.v c c MXMXMXmXv 8X-.vX-.1.#.@.LXLXg l L K H ) ) OX) _ MX X*X$X%X%X$XP.Z.A.A.S.S.A.A.",
"4 4 3 3 2 2 3 w.;.jXkXiXpXfXdX..@.GXJXHXJ.*.V z x | x MXbXB 9X .| O.1.#.@.KXJXh z K L H ) ) ) ) ^ M  X&X%X%X%X&X7XZ.Z.Z.Z.Z.Z.Z.",
"3 3 2 2 2 2 3 l...sXxXfXdXfXdXqXUXGXHXGXX.Z Z z F x x NXNXV 1.O.b 9X3.#.UXKXJXj k AX_.I ~ ~ ) ) mXv lX#X%X%X%X&XI.F.V.V.C.C.C.C.",
"2 2 2 2 2 x.2 Y. .yXxXfXdXwXpXf.+.+.HXV B NXB z CXc x CXZ =.<.0XwX0X3.#.UXKXHXk ~.j z H ^ ^ ~ ( BXb kX%X%X%X%X&Xy.N.g.g.m.m.m.m.",
"1 1 < < < < 1 r.P.sXzXfXdXdXaXaXV $.GXV N MXB ZXz G F D V #.<.9XqXqX8X#.#.@.HX/.^./.).P I I / | n yX<X&X4X%X%X&Xy.M.b.n.n.g.g.g.",
", > > u u e > v.q.tXzXkXfXsXsXaXrX=.@.X.c n v SXAXF D Z =.3.3.9XuX0X0X9X#.$.JXl ^./._.K ].I c  X.XjX,X2X4X4X%X&Xy.r.3 v.b.n.n.n.",
", > > u u y y < R.eXxXkXgXfXdXfXsX-.@.*.v b A A ZXC Z o.4.4.3.0XuX8X4.0X@.$.+.DX/.FX`._.c f.N _ xX-X-X>X2Xs.%X&Xy.r.3 3 3 v.b.b.",
": : i u u y t , R.iXxXkXhXfXdXfXgXM *.o.V C o.X.A V o.$.5.1.9XO.uXwX..O.+.+.$.$.o.GX`.qX&.N |.bXxX' 2X:X5X5X%X$Xt.r.x.x.2 3 3 3 ",
"> i u u y t t , w.;.cXkXjXgXsXaXgXfXM X.o.o.=.V *.=.+.+.5.1.0X-.aXh.aX-.o.....#.#.GXL c K  Xm m =XxX,X2X2X%X%X#Xt.r.< < < 1 x.x.",
"u u u y y t y x.0. .jXkXkXhXgXpXsXgXm fXqX..X *.W.o.O.+.O.=.:.qXgXh.dXb %.X.%.*.#.FXc v M tXfX=X-X<X>X*X*X$X#X#Xt.r.< , , < < 1 ",
"y y y t t t e T.8...vXxXkXgXgXaXwXfXM yXN b B &.A X.o.....-.rXrXhXdXsX| | b v &.*.c L eXM jX<X=X1X,X<X>X2X5X$X#Xt.r., , , , , < ",
"y t t t t t x.w.q. .lXkXlXsXsXfXeXpXrXeXeXeXv v SXJX*...X.v F NXbXvXMXN nX( J b B L P m jXzX-X<X,X>XkX1X:X4X5X@Xt.r., > > , , , ",
"t t t t t y z.l.E...aXjXgXpXaXdXfXtXeX-.X.*...o.o.HXA X.D F CXVXVXCXb F x nXmXnXG n }.}.m m 2X:X>X:X>X:X%Xa.1X&XK.T., u e > , , ",
"t t t t t e Y.k.R. .rXfXgXpXgXaXdXfXN B ;.X.X.V ZXC S D S !.% % % . . . !.CXVXNXx BXn XXzX;X:X:X:X:X:X3X3X<X;X*Xk.l.c.e > > > > ",
"r t t t t x.w.j.9.-.gXf.gXfXjXn tXiXpXM v Z C Z & . !.. X # @ $ $ 2.#.$ $ Q.IXX . D x .XcX,X:X,X<X>X>X3X3X2X;X=Xi.k.r., > > > > ",
"r r r r y r.w.j.9X;.cXcXjXgXm vX}.qX-.rXZ C S S % X Q.$ 1.2.#.Q.$ 3.+.=.=.1.,.<.2.$.V | xX>X:X>X<XzX<X3X3X2X-X|.i.u.Y.< u u e e ",
"r r r r > l.k.k.7.;.cXxXzXm rXhXvXN b Z V V !.o @ 1.<.<.1.*.C D *.0XqX`.[.9X,.,.3.3.2.*.| >X:X:XzXlX<X3X3X5X-X{.i.e l.v.u t t y ",
"t t t t x.l.9 j.4. .hXN cXcXm m vXvXv A V .   $ ,.<.1.3.4.D x G %.>.).'.].8X,.,.5.5.,.1.. bX,X>X2X;X1X3X4X4X5XG.i.w 7 T.< t t t ",
"t y y y v.R.k.k.9X:.b W.v xXjXb n b C A A   2.,.<.3.3.4.3.v K I &.>.'.p.p.I.,.,.4.7.3.,.$ D } ,X>Xa.1X<X3X3X2XP.u.q 9 T.v.u t y ",
"t y u u v.q.6.j.8.;.Z o D XXcXM c Z A A X 1.,.,.<.7.3.5.1.b P I &.O.[.p.p.J.,.<.4.5.1.,.,.+.x ] ,X5X2Xa.3X3Xs.P.7 q 0 8 e., u u ",
"t y u i v.0.5.8.8.;.C X C XXn &.&.A A W.2.,.,.<.,.1.3.5.<.;._.U SX1.8X7X7.<.,.7XK.8.,.,.,.<.W.MX<X5X3X3X3X4X6XI.j.w e 8 Y.< e e ",
"t y u i v.0.9X7.7.:.D   v  XB V A A !.Q.<.5.5.I.>.,.5.6.3.1.4.0X9X<.9X+.P.7X<.:.U J.4.4.0X1.2.D } -X3X3X4Xa.5XP.y.u.9.k.U.< > > ",
"y u i ; z.q. .0X5...N eXNXb A A A S   1.4.H.P.L.K.9XP.L.P.UXSXf HX4.*.SX`.L.3.8X`.K.K.L.'.8.,.=.| .X6X3X5Xa.5X>.w.E.P.U.Y.1 > > ",
"u i : v.l.I.wX4.4.O.m m n b Z A A . #.1.9XH.L.L.J.P.H.J.9X4.#.$ $ 2.2.2.4.4.<.3.O.P.J.{.].P.3.2.C [ -Xa.1Xa.6X8Xq.7Xd.q.Y.c.< > ",
"> : 3 U.I.fX .4.5.8XM m n v Z S V Q.>.K.0X:.J.K.>.P...@.JXIX@ # # # Q.@.+.GXHXf #.4.+.J.[.I.H.7XQ.NX' s.zX4X6X7X8.8XgXd.w.z.x., ",
": x.e.E.|.sX8.9.0.8.eXm m F D A X #.J.K.9X:.>.KX4.5.+.HXo + + + + + + HXj s /.(.s @.1.0XK.P.H.G.2.!.nXcXjX4X6X7X6.7.eXzXK.l.b.< ",
"1 z.w.lX;X:.R.e.e.q.:.N NXB Z W.$ 0XJXP.3.>.$.3.KXK./.g % % % O O O o o g s d s a d KX1.9X8XJ.H.4.Q.F hXkX4X=XP.6.6.:.jXlXR.e.c.",
"b.l.d.1XaXP.T.v.c.V...M N B !.Q.3.>.8X>.<.4.3.@./.(._.h & & % O o # @ @ X j s l ).s s JX2.1.7XG.9X1.% BXjX4X=XI.w.q.8.sX] d.V.b.",
"U.E.kXsXI.l.v.1 1 T.>.v b D W.2.5.7XP.8X<.2.GXd (.)._.S A .     X X X =.Q.DX/.&.^.(.).s X 2.9XP.4.<.# VXjX&X-XE.Y.e.w.:.xX;XE.T.",
"I.pXpXI.U.b.1 < < r.8.rXv S + 1.9X0X8X2.2.DX(.)._.).&.V C B M N M b rXZ X.W.d ;.^.^.^.AX!.# 2.4.1.<.@ CXlX=Xs.E.e.b.e.q.tX] fXw.",
"lXkXK.U.v.1 , , , z.8.eX&.!.@ <.4.4.1.1.JX`.U _.iX_.&.v NX XbX.XxXjXgXM D V /.-.^.`.M | ZX+ @ <.2.<.* & cX&XlXR.e.v.b.l.7XgXjXq.",
"bXqXR.b.< > > , , r.8.qXZ % $ <.1.1.2.DX`.[.[.B -._.f.n lXvXcXxXcXjXhXhXM ;.X.V ^.%.yXcXMXA # $ 2.1.* S cX@XpXq.U.v.c.z.q.aXjXwX",
"I.0.T.x.> > > , < e.8.;.Z % $ * $ $ JX/.[.{.[.f.;.%.f.m  XcXcXcXcXjXhXjXhXtX-.-.^.m [ { [ |   # @ * @ S .X*XiX8.l.v.c.v.w.uXhXxX",
"l.r.v.< > > > , 1 l.8X;.Z % @ <.2.# !.%.(.f.}.b eX;.f.rXm vXcXvXjXhXjXcXcXgXrX-.U  X` ' } { &.@ # @ + & XXs.pXq.T.v.2 c.U.>.uXxX"
};
