/* XPM */
static char *a401fdd5ce914947d0f039dad702e86bQXC27QkGMqFwmuoD[] = {
/* columns rows colors chars-per-pixel */
"64 64 256 2 ",
"   c #C29A8B",
".  c #BB9084",
"X  c #63514F",
"o  c #A88581",
"O  c #8F7A78",
"+  c #94807B",
"@  c #A18E8D",
"#  c #988483",
"$  c #62574E",
"%  c #5E5356",
"&  c #69676E",
"*  c #946D61",
"=  c #AD8674",
"-  c #8C665C",
";  c #9E7D73",
":  c #9D7569",
">  c #6A5E59",
",  c #7C5D52",
"<  c #534248",
"1  c #866D68",
"2  c #8C736E",
"3  c #604D4C",
"4  c #7B655D",
"5  c #765F5C",
"6  c #705A53",
"7  c #806963",
"8  c #53494A",
"9  c #604A47",
"0  c #826158",
"q  c #604844",
"w  c #6C524B",
"e  c #77574F",
"r  c #72524E",
"t  c #6D5652",
"y  c #6A4D4B",
"u  c #3B2E2A",
"i  c #6F4F45",
"p  c #6A4A43",
"a  c #61413D",
"s  c #574643",
"d  c #5C4341",
"f  c #402924",
"g  c #57413D",
"h  c #523E38",
"j  c #412B23",
"k  c #452E28",
"l  c #4B3C3D",
"z  c #4F3834",
"x  c #493430",
"c  c #56504D",
"v  c #5B5B55",
"b  c #565555",
"n  c #656159",
"m  c #646058",
"M  c #655F5A",
"N  c #645E58",
"B  c #615E57",
"V  c #625C56",
"C  c #5F5C55",
"Z  c #5F5B55",
"A  c #5F5A55",
"S  c #5D5955",
"D  c #5D5855",
"F  c #5C5555",
"G  c #595255",
"H  c #5B5755",
"J  c #595555",
"K  c #585455",
"L  c #575355",
"P  c #555255",
"I  c #504E55",
"U  c #565155",
"Y  c #545055",
"T  c #544F54",
"R  c #4E4B54",
"E  c #514D54",
"W  c #524E52",
"Q  c #524C50",
"!  c #4B4A50",
"~  c #504B51",
"^  c #4F4A4F",
"/  c #4D484E",
"(  c #4E494F",
")  c #4A484F",
"_  c #4B484C",
"`  c #48484D",
"'  c #484646",
"]  c #494849",
"[  c #484749",
"{  c #424143",
"}  c #413F44",
"|  c #454246",
" . c #474649",
".. c #484446",
"X. c #474243",
"o. c #464041",
"O. c #423C3E",
"+. c #413B3B",
"@. c #3B3538",
"#. c #3C3738",
"$. c #423E3F",
"%. c #3A3938",
"&. c #3E3D3E",
"*. c #3D3B3C",
"=. c #3B393C",
"-. c #363639",
";. c #373534",
":. c #2A292D",
">. c #2E2D32",
",. c #3A3435",
"<. c #353436",
"1. c #333034",
"2. c #343232",
"3. c #373233",
"4. c #353031",
"5. c #332F2F",
"6. c #322D2D",
"7. c #2F2C2D",
"8. c #302B2A",
"9. c #2E292A",
"0. c #2D2928",
"q. c #2C2728",
"w. c #2A2526",
"e. c #292424",
"r. c #282421",
"t. c #252529",
"y. c #242323",
"u. c #362928",
"i. c #22211D",
"p. c #34333C",
"a. c #46424D",
"s. c #201D1C",
"d. c #1B1A1B",
"f. c #241B16",
"g. c #1F1711",
"h. c #302523",
"j. c #2B1D17",
"k. c #20140D",
"l. c #25160E",
"z. c #1D100C",
"x. c #1D120C",
"c. c #17100D",
"v. c #281913",
"b. c #2E2119",
"n. c #29201B",
"m. c #170C07",
"M. c #120904",
"N. c #37231E",
"B. c #433330",
"V. c #0B0905",
"C. c #0C0A07",
"Z. c #080803",
"A. c #080604",
"S. c #0F0C09",
"D. c #100E0C",
"F. c #060603",
"G. c #101116",
"H. c #181716",
"J. c #0E0E13",
"K. c #09080B",
"L. c #0C0B0F",
"P. c #12131A",
"I. c #151520",
"U. c #161821",
"Y. c #191D26",
"T. c #21232C",
"R. c #1C202A",
"E. c #212738",
"W. c #1E2433",
"Q. c #282F42",
"!. c #252C3D",
"~. c #25293A",
"^. c #2C3548",
"/. c #2F384C",
"(. c #333D53",
"). c #283247",
"_. c #344053",
"`. c #384455",
"'. c #3B4755",
"]. c #414B5B",
"[. c #3F495C",
"{. c #3B4A5A",
"}. c #3A4759",
"|. c #384152",
" X c #373D4B",
".X c #424D62",
"XX c #465165",
"oX c #444F60",
"OX c #445262",
"+X c #475467",
"@X c #4B5769",
"#X c #373846",
"$X c #3F4556",
"%X c #242632",
"&X c #4A526A",
"*X c #515D72",
"=X c #526176",
"-X c #4D5C72",
";X c #4E5F72",
":X c #546378",
">X c #54667B",
",X c #57697E",
"<X c #56667F",
"1X c #4C5B6C",
"2X c #4C5971",
"3X c #49586F",
"4X c #5D6C84",
"5X c #5A6B82",
"6X c #5B6B86",
"7X c #596883",
"8X c #5F6E86",
"9X c #5F6D8A",
"0X c #616E8C",
"qX c #54617C",
"wX c #62718A",
"eX c #59647D",
"rX c #677593",
"tX c #65728F",
"yX c #61708F",
"uX c #697793",
"iX c #6A7996",
"pX c #6D7C9B",
"aX c #6C7B99",
"sX c #6E7F9C",
"dX c #70819F",
"fX c #7383A2",
"gX c #7686A4",
"hX c #7989A5",
"jX c #66748B",
"kX c #464957",
"lX c #64687A",
"zX c #5A5864",
"xX c #707D92",
"cX c #8593AB",
"vX c #8390AA",
"bX c #7D8EA8",
"nX c #7F90A8",
"mX c #72798D",
"MX c #8B99AF",
"NX c #8896AD",
"BX c #8D9CB1",
"VX c #8E9FB6",
"CX c #8697B2",
"ZX c #8B9BB4",
"AX c #838CA1",
"SX c #7E879E",
"DX c #625B5E",
"FX c #71747F",
"GX c #6F6E80",
"HX c #716C77",
"JX c #636263",
"KX c #6B606A",
"LX c #7F8497",
"PX c #5F5F6A",
"IX c #9890A0",
"UX c #827E8C",
/* pixels */
"#.%.+.O.$.o.o.o... .' [ ] ] ) _ ( ^ ^ ^ ~ ~ ( ^ ^ ^ ^ ^ ^ ~ ~ ^ ^ ( Q E E I W c T T W Q Q W Q ( ( _ _ ] [ ..| X.$.&.*.=.,.2.5.:.",
"#.+.$.$.$.o.o.X.....' ' [ ] ) ) _ / / / / ( ^ ( ^ / R ^ ~ ~ W E ~ ~ ^ R E E Q W W T W Q Q ~ ~ ^ ( / ] ] ....X.X.o.{ &.*.%.<.5.:.",
"#.+.$.O.o.X.X.....' [ [ [ ] ] ` _ _ _ / ( ^ ! ( ~ E I ~ W E I T Y Y I T W E W E W E T ~ ( ( ( / / _ ] ] ..' ..X.X.{ $.&.=.-.2.7.",
"+.$.$.o.X.X... .' ] _ _ ! _ ^ ( ( ^ ^ ~ ~ ~ E W Y L b K L U U P L L L U U U Y T Y Y U U W ~ ( ( ( _ ) ` [ ]  .....X.{ } =.-.<.>.",
"$.X.o.......[ ] ] _ ( ^ ~ Q ~ W W W U Y U P L L L L J H K L L K L K J G K F L U Y U L G G U Q ~ ~ ~ ( ) _ _ .. .' ..| } &.=.<.1.",
"o.| ..[ [ ] ] ] _ ! ~ Q W E E Y U U G F J H H F S H J H H D D H H H D F F D F G G U G G J K L T T E ~ ( / / _  .]  .| | $.=.<.1.",
"X...' ` ` ` _ _ ( ~ I T Y Y U L K J J J J H S H H H F D S S S S S H D D D D F F F F G L K L L U Y T W ~ ^ ) ] ] ] ..| } &.=.;.1.",
".. .] ] ] _ _ ( ~ Q W Y Y U U L L K J J F F H D H S D D A S A Z A D D c X.z B.B.x l T F G P P U Y T T E ! ! ` ] ` ' ..{ &.=.;.2.",
"' [ [ ] _ ^ R E W E T Y P L L K J J H S S D S D A C A D S A C V V $ h j f k k f N.v.h...F K K L P Y Y T W Q ! ) ` `  ...} &.-.<.",
"' [ ] _ ( R Q T T T P L L K J H H S A Z Z Z C B V B B V C Z V B N s j a q w w d x N.l.g.o.H J K G U U P Y W R ! ) ` [  .{ &.#.<.",
"' ] / ( ^ E W U U U G K J J H D S A C C V N N V B M m m N V V V A B.k y t 5 4 w g k j.m.f.c D F K U P L Y Y I R ! ` ]  .| $.=.-.",
"] ) / ( ~ E T U P G J J H H D A Z Z C C B N N N m M m M N N N N 3 f z y 7 1 1 0 i z j.z.c.8 D D F J G L P Y W I R ) ]  .| } =.-.",
"' ( ! ^ Q I W U L J H J D S A Z C C V N B N n m m n m n m M N $ z k g h 3 l i r z z h.z.f.J A A H D H G P Y I E R ) [ [ ..} =.-.",
"[ / ^ Q E Y Y P L J H H D A Z Z Z V N N N m n n n n n n n M M 6 x x t 5 6 a p a N.l j.M.8.Z A A S D H K P P I R R ) ` [ ..} =.-.",
"[ ) / ^ W Y U P K H S D Z Z Z V V B M N n n m M m M m n n M N t B.d 1 o ; * 0 p N.x v.M.0.B A Z A D H H L b Y E R ! ` `  .} =.-.",
"[ ` ( ^ W U U L L F S S A Z B N N B N V M M n m m n N M m V N 8 u d 0 ; 2 r a k l.j N.m.6.B Z C Z S F J P Y I I R ) `  .| } *.-.",
"..[ _ ^ ~ T P G K J D A A Z V B m N V V N m n n n M N N N B m c h.B.9 9 g q s N.x.B.N.M.o.m v v S S H K P T I I ! ` `  .| } *.-.",
"X.[ ] ( Q ~ U L J J D A Z C Z V N M m m M n m M m M m M m N m c n.b.B.B.9 6 $ #.g.f.f.c.Y B v C v v H b P Y I R ! ) `  .| { =.-.",
"o... ./ ( Q T U b J D S A C V V M N M n m n > > > n M M n N B A u.g.n.B.5 t h u.g.c.S.2.M B B C C S J b P Y E R ! ) `  .| $.=.-.",
"$.X.' _ / ~ W U K J J D D Z C V N N M M m n n M M M M M JX& FXmXo.h.g.0.l s l h.x.A.D.] N C C v S S b P Y I E R ! `  .| { &.%.<.",
"&.X...[ _ ( Q T U F J F F D S Z V V V V B m B N M & GXmXSXnXVXvXzXl h.k.c.c.c.D.A.F.F.t.J V S v v H b P I ~ R ) ` [  .| } &.-.1.",
"*.$.X...] _ ( ~ W Y L J H F F F A Z S DXJXHXFXxXxXvXCXMXBXCXVXCXmX% s B.f.m.V.A.F.F.C.G.T.} E L b P Y R R ! ) ` [ ..| } *.=.<.>.",
"*.$.o.X...] / ( ~ Q U J H H J G F JXFXSXvXcXcXcXcXvXcXcXMXVXCXZXbXmXDX< u b.v.x.S.I.W.Y.E.Q.(.kXI I E ! ) ` ` `  ...X.$.=.-.1.7.",
"%.&.{ X. . .[ ( ( ~ E U L J J DXmXvXVXVXBXNXNXNXcXnXbXhXcXBXBXNXMXCXAXlXl z g =. X/.Q._..X].+XqXeX*XzXR ) `  . .a.{ $.*.=.<.>.:.",
"%.*.$.X.X...' _ _ ^ ~ T U L & nXBXVXBXBXVXBXMXNXvXbXbXhXcXCXZXMXSXSXSXAXmXFXjX7X=X-XwX8XtXqX6XdXfXpXrX:X&X) | | } &.*.=.-.1.>.:.",
"%.&.O.$.o.X..._ / ( ^ ^ Q zXAXVXMXMXBXcXVXBXMXcXbXcXhXcXcXZXBXZXvXfXgXcXvXNXSXsXsXdXmXiXgXyXiXgXbXhXhXiX:X@XkX} &.*.=.-.<.1.7.:.",
"%.*.O.O.o.X... ._ _ _ ( zXLXVXVXCXcXCXnXMXNXNXcXhXZXnXMXvXMXMXcXAXFXHXHXHXKXDX> > & DXzXlXlXGXIXAXdXnXpX0XqX&Xa.=.=.@.<.2.>.:.t.",
"%.#.*.&.$.o.X...[ [ ) @XmXbXCXNXvXnXbXnXhXhXvXZXbXMXAXmXHXKX5 5 6 e i y , r d a w r d x z a i 7 O IXvXpX0X5X2XXX Xp.<.2.5.:.t.t.",
";.%.=.&.&.$.o.| ..) PXhXZXVXVXBXNXvXgXgXfXxXSXLX& % 9 9 w 0 * : ; ; : : - r a y e e d z i e p e # UXhXdX<X:X*XqX[.p.1.1.7.:.t.t.",
";.;.%.*.&.&.$.{ E GXLXAXAXcXMXBXNXSXjXlXPX8 < s 3 6 4 1 2 : ; = = = o ; 0 i i , y a i i i 2 & lXtX0XfXfX2X&XeXqX&X^.7.>.:.t.t.t.",
";.<.;.%.&.&.$.o.8 8 < l < c F % Q s d 3 t 7 2 2 7 t 3 q y e 0 - - 0 0 , i h < < } } a.T 8 KXlX9X9X:XwXsX.XXXeX-X&X^.:.:.t.y.y.y.",
";.;.;.%.*.+.h g g h g d d q X 6 7 # @ @ @ # O 4 t y h u @.I I a...l o.9.l.v.%X~.%XE.~.Q./.`.[.OX+XOX@X,X{.`.2X2X.X(.T.t.t.y.y.y.",
";.;.;.;.#.g w t t t 6 7 2 + @ # # + O 2 1 4 5 w g f s. X1XeX-X}.].|. Xy.N.h c.G.J.J.G.U.R.E.Q.^././.|.].^.!..X3X+X/.~.t.y.y.i.s.",
";.;.;.,.x d y y y t 5 7 7 7 5 6 > 1 2 7 t s x N.f.T. X].(.^.).E.T.T.n.v.f * x C.K.K.L.G.P.U.R.R.W.E.Q.^.W.!.&X3X.X}./.t.y.i.s.s.",
"3.;.;.B.z a p r r e t 9 q y 6 4 7 4 t h u n.g.Y.!.Q.E.T.U.U.U.Y.Y.U.z r a * p c.K.S.J.P.U.Y.Y.Y.R.T.W.E.Y.Q.XXXX.X{.'./.t.i.s.d.",
"2.<.3.B.a p r 0 , w q y r e 6 w g k h.f.x.P.R.Q.E.I.J.J.G.U.Y.E.!.~.s : - : i v.J.G.U.Y.W.W.W.W.W.W.W.W.U.^.{.[.{.{.{.`.Q.i.s.d.",
"2.<.4.j h q 9 d d p d d g h k b.j.g.z.c.D.G.U.d.P.L.D.P.Y.E.).(.$X[.|.w : = : j D.G.U.W.!.Q.Q.Q.~.E.E.E.U./.{.[.[.{.{.`.^.T.H.H.",
"2.2.4.u x z k f j j u.b.j.l.k.k.x.g.e.H.K.L.L.D.J.G.U.E.^.(.].OX2XqX-Xa.; . = p x.L.U.R.!.^.).Q.!.~.~.~.Y._.[..X.X{.}.}.(.!.d.H.",
"4.4.4.u.u.u.j.l.k.k.k.k.z.z.g.n.8.@.$.i.K.K.K.L.G.Y.!.(.].@X;X:X4XwXrXeX+   = - j.A.J.Y.~.^.).~.!.!.Q.!.W.`.[.[.].].kX#X>.t.H.G.",
"4.4.2.6.e.f.g.k.f.j.n.n.w.6.,.+.$.O.O.d.K.J.P.U.R.Q.`..X;X,X8XjXuXaXdXdXGX; : , N.M.M.c.d.y.y.R.E.~.!.T.Y.Q.>.1.2.8.u.n.k.c.S.J.",
"6.2.2.2.2.4.3.3.,.@.#.#.*.+.+.+.O.O.*.d.P.Y.W.!./._.oX*X8XrXxXsXsXdXfXgXpXzXX p j k.M.x.j.v.f.f.f.v.f.f.s.e.u.u.u.r.j.g.x.z.D.D.",
"8.5.4.1.3.3.,.,.@.,.#.@.#.#.=.*.*.O.#.R.E.)./._.[.OX;X4XrXsXgXgXgXgXhXhXgXjX+Xa.u.l.m.l.N.j.f.b.b.n.b.b.b.b.b.b.j.f.k.z.z.c.S.C.",
"u.6.5.5.4.1.4.3.3.,.,.@.#.#.#.=.*.=.#X^._.}.OX+X3X=X,XjXpXdXgXhXhXgXhXhXgXdX8XeXkXe.k.k.l.k.l.l.f.l.v.v.v.f.l.l.k.k.z.m.m.S.V.A.",
"6.6.6.6.5.4.4.4.3.3.,.,.,.,.@.#.#.#.#X}.XX-XqX>X7X9XtXiXdXfXgXhXhXgXgXgXgXfXiX8X8X[.E.H.c.k.v.v.l.l.x.x.z.x.z.z.z.z.m.m.M.M.A.A.",
"6.6.8.6.5.4.4.3.3.3.3.4.3.,.@.@.@.@.|.3X<X4XwXtXtXuXiXpXdXdXfXgXgXgXgXfXfXdXpXwX,X=X_.!.U.G.c.z.z.l.l.k.x.x.m.m.m.m.m.M.M.V.A.Z.",
"8.6.6.6.5.5.5.1.3.3.3.2.4.3.,.3.,.-.].5XrXuXpXiXuXpXsXsXsXdXfXfXfXgXsXiXpXxXiXrX<X*XXX_.E.Y.R.R.H.c.c.c.z.z.m.m.M.M.M.M.M.M.V.C.",
"9.8.7.6.6.6.6.5.4.4.3.2.3.3.3.3.;.<.&XrXaXpXsXpXaXpXsXsXdXdXdXsXsXpXuXjXjXtX0X0X4X-XXX[.^.E.~.).!.d.D.D.S.S.S.M.M.V.C.V.V.V.V.C.",
"9.8.8.7.6.6.6.6.5.4.4.4.4.4.3.3.1.p.*XaXpXsXdXsXaXaXsXsXpXpXsXpXaXuX8X7X4X4X8X4X5X=X].`./.!.)._.(.Q.I.D.D.D.D.D.D.D.S.S.C.C.C.C.",
"9.9.0.9.8.7.7.6.6.6.5.5.5.5.6.4.4.<.:XpXaXaXdXsXpXaXaXaXiXuXuXuXuXjX8X,X,X5X4X5X>X=XXX$X/.)./.`.'._.!.G.D.D.D.D.S.S.S.S.C.V.C.V.",
"9.9.9.9.9.7.7.8.7.7.6.5.5.6.6.5.5.<.eXaXuXaXsXsXaXiXiXiXyXyX9X5X8XwX8X5X:X>X,X:X-X@X+X]._.)./.}.[.}./.R.D.D.D.S.S.S.S.C.V.C.V.V.",
"q.9.9.9.9.9.8.7.7.8.7.6.6.6.6.6.8.p.9XuXtXiXaXaXuXrXrXiXrX0X9X<X>X,X4X4X>X=X;X@XXXoXoXoX].(.^.(.].}./.~.H.D.S.S.S.S.S.C.V.Z.Z.Z.",
"q.q.0.9.0.9.9.8.8.8.0.8.8.8.7.8.8.#X0XwX8XyXuXuXuXrXrXuXuXwX9X4X,X:X>X5X,X;X1X+XoX].].].].'./.).(.`.(.).R.D.S.S.S.S.C.C.V.V.Z.Z.",
"w.q.0.0.9.0.9.8.8.9.9.8.8.9.9.8.9.$X0X4X,XwXrXuXuXrXtXrXrXtX9X4X4X,X:X=X>X=X1X@X+XoX].{.'.'.|.^.)._.`.(.~.P.S.C.S.C.C.C.V.Z.Z.V.",
"w.q.q.0.9.9.0.9.9.9.0.9.0.0.9.0.:.&X9X:X<XyXrXrXtXwX8XyXtXtX9X6X5X5X,X;X-X=X1XXXXXOXoX].'.`._.(.Q.Q.(.|.Q.Y.D.C.S.S.C.C.V.Z.F.V.",
"w.q.q.q.0.9.0.9.0.9.8.9.9.9.9.0.>.*X<X;X<X0XtXtXwX0X9X9XyXyX0X6X,X,X<X=X-X3X@X@XOXOXoX[.].'.`.(./.~.!._./.R.D.S.S.C.C.V.Z.Z.Z.A.",
"w.w.w.q.q.q.0.0.q.q.0.q.q.q.q.w.#X>X=X-X<X0XyX0X0X8X8X0X0X9X9X5X>X>X>X:X=X1X+XXXXX.X].[.].].[.`.(.^.~.^.|.R.G.S.C.C.V.A.Z.Z.Z.Z.",
"r.w.w.q.w.q.q.q.q.q.q.q.0.q.q.q.[.qX=X2X7X9X9X8X8X4X8X8X9X9X9X4X,X>X:X:X;X;X@XXXXX.X[.}.{.{.{.{._.^.!.!. XW.H.C.C.C.C.V.Z.Z.Z.F.",
"r.r.e.w.w.w.q.q.q.q.q.q.q.q.w.>.:X7X-XqXyX7X,X6X6X5X5X4X6X5X5X6X6X<X;X;X;X;X-X+XoX].].}.}.'.'.'.`./.).!.`. XI.C.C.V.Z.V.Z.Z.Z.Z.",
"r.e.r.e.e.w.q.q.w.w.q.q.q.h.w.p.=X9XyXrXrX9X6X6X5X6X5X5X7X7X5X6X4X6X>X-X2X;X-X3X+XoX[.'.'.`.`.'.`.^.!.(.XX%XG.G.V.V.Z.V.A.Z.A.F.",
"y.y.r.r.r.e.e.w.w.q.w.w.w.w.w.1.@X=X8XrXrX0X7X>X,X6X6X5X,X7X7X,X,X<X>X=X1X+X+X3X3X@XOX.X{.`._._.(./.(.$XW.P.G.C.Z.V.Z.A.Z.Z.Z.F.",
"y.y.r.r.r.r.r.w.w.w.w.w.w.e.w.:.=.{ |.[.2X<X<X7X4X0X0X7X<X<X7X<X>X>X>X=X;X2X&X.XoXOXOXOXoX].'.`.|.|./.T.P.L.K.V.V.Z.Z.V.Z.Z.Z.F.",
"i.y.y.y.y.e.e.e.e.e.e.w.w.w.e.r.e.d.L.L.P.T.p.'.XX*XqX=X*X=XeX=X=X:X*X*X;X=X*X1X*X1X@XOX].$X#X!.R.Y.I.J.K.K.Z.Z.V.Z.Z.Z.Z.Z.F.Z.",
"i.y.y.y.y.e.e.e.r.e.e.e.e.e.r.e.r.s.G.G.P.G.G.G.I.I.U.U.U.U.Y.T.:.%XY.Y.T.T.T.T.~.%XT.d.I.d.I.I.I.I.U.L.K.K.K.A.Z.Z.Z.Z.Z.F.F.A.",
"i.i.i.y.y.y.y.e.r.r.r.r.r.r.r.r.r.s.I.P.I.I.P.I.I.U.U.U.I.G.P.U.Y.J.A.J.J.J.G.J.I.G.G.K.G.I.P.P.I.P.G.L.L.A.K.A.Z.Z.Z.Z.A.F.F.Z."
};
