/* XPM */
static char *_88a5c04ae484100eeb27ec26ab66f08U9DfiSgrTX34Uv3R[] = {
/* columns rows colors chars-per-pixel */
"64 64 256 2 ",
"   c #BA9986",
".  c #928759",
"X  c #D5A784",
"o  c #7D814A",
"O  c #767746",
"+  c #744225",
"@  c #663922",
"#  c #774B36",
"$  c #C1AB9D",
"%  c #AF8466",
"&  c #845E4B",
"*  c #A17863",
"=  c #895328",
"-  c #DDAE86",
";  c #C19A74",
":  c #B58562",
">  c #976844",
",  c #C6956F",
"<  c #D3A27A",
"1  c #AC7E5C",
"2  c #BA8C6A",
"3  c #CE9E77",
"4  c #C29168",
"5  c #DAA87C",
"6  c #B2794A",
"7  c #A17250",
"8  c #8E5932",
"9  c #A77654",
"0  c #C99668",
"q  c #D49E71",
"w  c #A67244",
"e  c #B18158",
"r  c #CF9B70",
"t  c #CC986D",
"y  c #C18F63",
"u  c #B07C4F",
"i  c #C69366",
"p  c #B58154",
"a  c #C08C61",
"s  c #BA8557",
"d  c #B9875C",
"f  c #BC8A5F",
"g  c #AC7C53",
"h  c #B4835A",
"j  c #B17E54",
"k  c #A87548",
"l  c #A27046",
"z  c #AB784C",
"x  c #A26D41",
"c  c #9D693C",
"v  c #9C6C41",
"b  c #99653B",
"n  c #92674E",
"m  c #936038",
"M  c #966B51",
"N  c #CEBFB3",
"B  c #775745",
"V  c #8D7E73",
"C  c #70675E",
"Z  c #95735E",
"A  c #A47E68",
"S  c #B7957F",
"D  c #BCA28F",
"F  c #9C9083",
"G  c #A99989",
"H  c #A9866F",
"J  c #AC9585",
"K  c #997B66",
"L  c #9C816C",
"P  c #A8907E",
"I  c #A98C78",
"U  c #B29C8D",
"Y  c #968374",
"T  c #A18D7C",
"R  c #90796A",
"E  c #876E61",
"W  c #907C69",
"Q  c #9E8976",
"!  c #9C8471",
"~  c #967F6F",
"^  c #816652",
"/  c #967E69",
"(  c #8C7662",
")  c #846C59",
"_  c #87715F",
"`  c #B2A49A",
"'  c #A99D94",
"]  c #C2B2A5",
"[  c #C4B7AE",
"{  c #C4CCD1",
"}  c #B6A9A1",
"|  c #AEA6A0",
" . c #C7C9C5",
".. c #C1C2BC",
"X. c #C8C6C0",
"o. c #C4C4BF",
"O. c #C7C1BC",
"+. c #C4C0BB",
"@. c #C8BFBB",
"#. c #C4BEBA",
"$. c #C5BDB7",
"%. c #C3BBB7",
"&. c #C1BAB5",
"*. c #C0B8B4",
"=. c #BDBCB7",
"-. c #BFBFB9",
";. c #B8B9B5",
":. c #B3B1AC",
">. c #B8B3AD",
",. c #BCB5B2",
"<. c #BDB4B3",
"1. c #AEADA8",
"2. c #AAAAA5",
"3. c #A6A5A0",
"4. c #AAA7A3",
"5. c #A3A09C",
"6. c #B4AEA8",
"7. c #989795",
"8. c #9D9C9A",
"9. c #919293",
"0. c #847D78",
"q. c #958E8A",
"w. c #9C928B",
"e. c #7D7371",
"r. c #7B6F6A",
"t. c #8E837C",
"y. c #928780",
"u. c #86786D",
"i. c #7E6D63",
"p. c #73655B",
"a. c #968A7E",
"s. c #766966",
"d. c #6F5F56",
"f. c #7D685B",
"g. c #A4968D",
"h. c #655650",
"j. c #6A5B55",
"k. c #634F47",
"l. c #665247",
"z. c #6E584E",
"x. c #6C5547",
"c. c #604F42",
"v. c #705B4F",
"b. c #604B3F",
"n. c #746057",
"m. c #7A6355",
"M. c #765F4F",
"N. c #5D4C45",
"B. c #584740",
"V. c #5C4942",
"C. c #54433E",
"Z. c #513F3A",
"A. c #4E3E37",
"S. c #4B3B34",
"D. c #4A3832",
"F. c #43332E",
"G. c #47362F",
"H. c #4E3D32",
"J. c #554136",
"K. c #584338",
"L. c #5B453A",
"P. c #5E483C",
"I. c #4E3A2F",
"U. c #523F33",
"Y. c #513B33",
"T. c #402F29",
"R. c #3A2A25",
"E. c #423129",
"W. c #392821",
"Q. c #362720",
"!. c #35241D",
"~. c #32221A",
"^. c #301F19",
"/. c #422E25",
"(. c #473328",
"). c #3C2D26",
"_. c #2C1C15",
"`. c #281812",
"'. c #3D2A1F",
"]. c #4D362B",
"[. c #685040",
"{. c #3E312D",
"}. c #30241E",
"|. c #32261F",
" X c #372B25",
".X c #352922",
"XX c #3C302A",
"oX c #413631",
"OX c #2D2218",
"+X c #261B14",
"@X c #22140E",
"#X c #1D130D",
"$X c #1E0E0A",
"%X c #21170F",
"&X c #19100C",
"*X c #261D1A",
"=X c #2A201C",
"-X c #211815",
";X c #241A19",
":X c #2C2220",
">X c #1C1414",
",X c #150B08",
"<X c #160E0C",
"1X c #110908",
"2X c #433835",
"3X c #463A37",
"4X c #4A403E",
"5X c #010002",
"6X c #0A0304",
"7X c #302626",
"8X c #473D3B",
"9X c #564B47",
"0X c #382F2E",
"qX c #372D2C",
"wX c #3E3432",
"eX c #332929",
"rX c #3A3231",
"tX c #4D4442",
"yX c #4F4746",
"uX c #594F4C",
"iX c #3E3635",
"pX c #3F3939",
"aX c #2B2527",
"sX c #5D5453",
"dX c #514B4A",
"fX c #0F0605",
"gX c #272226",
"hX c #2D2A2F",
"jX c #303036",
"kX c #36343B",
"lX c #38373E",
"zX c #433F42",
"xX c #464243",
"cX c #3B3C42",
"vX c #615E62",
"bX c #42444B",
"nX c #4F4F54",
"mX c #3C4148",
"MX c #484B52",
"NX c #46474E",
"BX c #50535B",
"VX c #565861",
"CX c #5F636B",
"ZX c #605958",
"AX c #666A71",
"SX c #6C7179",
"DX c #757A82",
"FX c #7D8288",
"GX c #271510",
"HX c #8A8C8F",
"JX c #371912",
"KX c #55312A",
"LX c #481F17",
"PX c #4C251C",
"IX c #4A2A24",
"UX c #3A201B",
/* pixels */
":XoXA.C.A.H.C.2X9X3X0XdXrXdXZXcXMXNXbXbXBXCXSXDXFXHX9.8.8.9.2.3.9.R 6.2.4.4.2.;.=...U 7 7 > : d z d < 3 : 2 3 ; : ; - , e 4 5 < ",
";X{.S.H.Z.H.C.oXtXyXrXyXxXzXvXlXnXbXlXmXMXVXAXDXDXDXDXFXFXFXHX9.8.g.1.2.2.3.1.;.-.-.[ 1 b 9 e m j , 2 9 2 < , 2 X - 4 d t 5 3 e ",
"-X XS.D.A.H.Z.G.2XuXwXyXuXiXZXcXMXmXkXkXNXnXCXAXAXSXDXSXSXSXDXFX8.1.1.2.3.4.:.=.-.=.X.P x e l l g h 7 : 3 2 4 - X h a 5 - 0 f 3 ",
"-X:XG.D.S.A.H.D.{.9X4X4XsX0XnXbXbXbXkXjXmXMXCXVXBXCXSXCXAXAXSXSXDX7.2.1.2.1.;.=.-.=...] g x z e b v h t f 9 X < > 2 - 5 a i 5 5 ",
">X*X{.J.D.Z.A.S.{.3X9X2XdXrXxXMXcXMXjXkXmXMXvXVXmXVXCXBXCXvXAXAXSXFX7.3.3.:.=.-.-.-.-.o.1 w e l m g f e , 3 2 h f < , > , 5 3 y ",
"&X*XR.Z.I.I.Z.S.F.XXsX3X4X8XpXnXlXNXjXlXbXMXVXnXcXVXBXMXvXvXCXvXAXAXFX5.3.2.=.-.......X.D z v v l e z 4 r j : 3 4 f d 9 3 t f y ",
",X*X.XA.I.E.A.S.F. X9XyXiXtX0XnXlXzXkXlXbXMXBXbXcXBXMXMXVXvXBXBXvXCXCX9.1.3.>.o.......X.N 7 m z k w a 4 j a < t 4 3 5 h k y t r ",
"1X;X.XH.I./.G.A.XX|.4XuXrXyX0XnXxXcXcXlXxXNXnXmXbXBXNXbXVXVXNXbXMXBXVXDX4.:.2.o. . .X.....D S 1 k s s z h t y i < 5 f l a q 0 f ",
"1X;XQ.S.H./.).C.{.}.oXuXrX4XpXyXyXcXzXpXxXbXnXcXNXVXbXcXBXnXzXmXbXNXBXCX7.=.:.=.;.q.HX0.vXC q.P j z z p a a 0 5 q f d r t y a i ",
"&X-X|.D.S.T.Q.S.oX.X2XyX4XiXzXxXyXpXxXpXzXzXNXzXyXvXxXlXbXbXlXcXcXmXMXVX9.4.7.4.0.uXr.e.p.k.Z.i.g k s s s t q i f g 4 4 f 0 r a ",
";X;X:X3XS.).Q. X3XoXXX2XyXiXpXxXdXzXxXpX8X8XzXzXyXvXdXkXlXlXlXlXcXcXmXnXe.SX0.4.7.s.e.0.u.l.U.v.1 p j p r 0 h a a v d 4 r t s s ",
"&X:X=XF.G. X.X}.wX8X.XrX4X8XrXtXyXzXxXpXiXpXpXpXyXZXdXpXkXkXjXkXcXcXcXbXAXe.0.4.4.0.r.u.i.l.B.m.e u s t f z d i u h , r 4 d i q ",
"<X*X X).).|. X+X.XyX7XqXrXdXrXtXyXxX8X3XwXwXiXpXyXsXuXcXkXjXjXjXcXkXlXlXCXAXe.5.5.y.i.i.f.l.b.Z z z a u z f s p a < t j d q q p ",
"-X#X XoX X|.|.`. X9X0X7X XtX2X8XdXtXpX8XwX0XrXpXtXuX9XpXrXjXjXkXlXjXkXlXvXvXr.y.t.V i.m.d.b.v.S s l z x d s u i q a k u r 0 p z ",
":X>X*X2XXXQ.|.*X X8X8X}.7X0XpXrX9X9X3X4XoXqX0XpX4XtXyXiXqXjXlXkXjXjXjXlXnXsXr.e.e.i.f.m.v.P.w.N p k z s u h t i s y t y d s 0 r ",
"=X=X-X.X3X|.OX*X XqX4XeX:X:X8XqX9XuX2X4XoX XeXiX2X2X9XwXeXjXzXkXkXhXhXlXlXdXr.e.r.i.i.m.c.i.+.X.% 6 j w d i s s t q d p i r i j ",
">X:X7X:X{.).*X:X X=XiXiX=X:X4X8X9XuXA.4X3XqX:X0XwX0XtXrX7XhXkXlXjXhXhXkXjXzXvXr.s.i.i.n.l.| X.X.D x k f s w s r i s a q t d h f ",
"&X-XeX0X:XXX}.=X.X+XqX2X.X}.2X9X4XV.S.2XZ.R.:X7XwXqXoX0XeXhXhXjXhXaXhXkXgXkXsXs.s.u.u.j.a. .-.X.[ x 6 k 8 z y s d t q a d i 0 d ",
"<X#X;X0X X=X0X7X}.+X}.{.XXR.F.B.B.V.S. XN.F.:X:XrXrX0XeXeXhXgXhXhXaXaXkX<XhXsXs.0.w.y.0.$.o...o. .A c s p z j a 0 f k a r y p h ",
"#X#X-XaX0X7X|.2X}.*X=X{.XXF.R.D.C.B.J.+XN.V.=X=X7XeX0XaXaXeX*XaXhXgXjXkX5XgXh.e.y.g.q.:.o.o.o.o. .D s s w w i a s d f y h h y f ",
"&X>X>X*X:XqX}.{.{.*X*X X{.S.T.Q.D.H.C.`.S.v.{.-X7XaX:X*XaXeXgXaXhXgXpXaX5X;Xd.u.t.t.q...o.o.o.o.X.N j 6 d w u p i y h g d a h j ",
"&X-X-X;X*X.XXX.XoX)._.^.E.F.Z._.).D.Z.`.).z.b.;XeXeX-XgX7XqXaXaXaXgXdXjX5X;Xn.u.f.h.0.;.....-.+.O.X.; s z x p i s s y y j j i t ",
"-X-X>X*X:X.XoXoX.XoX.X+XT.R.A.!._.G.K._.;Xk.x.=XqXwX*XaX0XqXgXaXgXrXyXgX5X>Xd.f.K.R.sXHX1.=.-.+.+. .$ k p s p u f d g g i r d j ",
"*X:X-X=X.X XXX3X{.}.F.^.}.T.F.A.$X.XN.!.<XL.c.*XaXpX7XgXrX0XaX=XaXh.tX>X5X>Xk.x.(.T.uXe.q.3.;.-...o.#.d u p s w k g f 2 f e d y ",
"#X|.}.:X.X.X X).3X X_.).^.W.W.N.|.@XV.G.-XG.P.|.=X0X:XqXwXpXrX7XeXp.dX1X5X;Xk.x.V.N.yXuXr.0.5.+.O.O. .; 6 j z z f a h 9 f i y h ",
"&X=X|.|. XR.).Q.Q.D. X_. X!.^.F.Z._.C.S.).Z.Y.|.*X:X7XiX8X8X4X8X8Xj.pX6X5X;Xx.M.b.S.2X3XsXvX5.o.+.O.X.] x k p s z j h f y d g g ",
"#X*X.X|..X.XR.W.!.~.S.XX~.R.Q.^.S.F.Z.S.Q.3XZ.}.-X;XeXwX8X2X4XtX9XZXdX<X6X3Xf.M.A.qX{.iX4XtXt.+.O.O.o.O.9 k u u p h 9 g d j e e ",
">X;X.X|.}.Q.R.W.!._.^.Z.F.!.F.S.W.F.S.B.!.Q.Z.{.=XeX{.F.C.A.{.4X8XtXyX7XaXs.R z.R.7X7XeXiX8XvX| O.O.O. .  x z p j m 8 1 h g l 9 ",
";X;X}..X}.~.!.Q.!.~.^.W.Z.D.W.C.S.R.W.B.D.~.D.Z.^.7XC.Z.Z.C.oX{.0X0XrX3XyXu.Y N.R.qXrX3XyXtXdXe.:.O.O.X.[ k z z z 7 > e h g m v ",
"-X;X=X|.|.!.~.^.!.~.!.Q.Q.S.E.T.B.S.).k.B.!.R.N.D.~.Z.x.k.k.Z.XXwX3XwX4XC.k.z.D.{.2XtXuXsXyX4XZX| @.@.O.X.% k z x k e z z h a h ",
",X*X;X}.~.~.^.^.^.^.~.!.!.!.R.R.D.A.E.N.z.Y.W.J.l.L.J.z.f.s.h.Z.2X2X4XC.N.V.V.B.Z.V.j.j.ZXyXwXtXq.#.O.O. .D x u l l g v h j z z ",
"fX>X;X=XOXOX^.^.^.^.^.!.W.W.W.).G.G.R.T.V.b.I.L.z.z.v.p.h.Q.{.3X{.oXC.k.n.n.v.f.z.l.j.j.sX9XyX4Xq.X.@.O.o.[ l c z j k z b z e k ",
">X1X;X*X:X}.~.^._._._.^.Q.T.G.D.Z.S.F.T.Y.L.P.Y.k.v.f.i.8X5X1X`.~.!.F.A.k.n.m.E E h.h.j.h.uXuXdXr.| +.+.+.X.H c w m l z c z u k ",
">X-X>X*X=X|.!.~.^.`._.`.^.R.F.T.T.G.S.Z.Y.b.k.V.l.z.d.s.7X5X1XGX!.!.|.8XC.N.v.E R v.h.d.h.yX9X9Xu.>.O.+.#.X.` x z x w w c c x v ",
"1X-X;X*X=X|.!.!.~._._.GXGXR.T.W.T.F.D.Y.A.N.l.k.k.l.n.p.;X5X6X,XJX/.R.2XsX9Xl.f.~ E n.N.B.tX4X4Xy.@.@.@.+...$.9 c c x c b c l k ",
"1X<X-X-X|. XR.Q.!.~.~.`.$X`.{.F.F.F.D.S.D.C.N.k.z.l.n.d.-X5X5X6XGXIX].D.9X9Xk.^ K ( V.E.T.G.{.C.t.%.@.@.#.#.X.I c c c b b l l v ",
"6X1X>X%X+XXXG.G.E.'.!._.`.$X+X{.S.D.G.G.C.N.V.J.z.i.r.j.>X5X5X5X$XLXKX(.4XuXk.E I ) H.W.!.T.N.r.w.*.@.@.#.#.o.} m x b b b c v v ",
"6X6X1X-X*X}.E.A.Y.(./.W.!.`.@X}.A.N.B.V.V.S.C.N.k.d.i.8X6X6X6X,XJXPXKX].G.N.k.E P Q M.P.K.B.n.a.:.#.@.@.#.#.+.&.n b 8 m b v m b ",
"6X6X6X<X;X}.R.E.Y.U.].E./.!.^._.|.A.N.B.V.C.D.k.d.i.h.<X$XLXLXLXPXPXIXKX].C.j.R J R Z ) [.I.r.%.@.@.@.@.#.#.$.o.I m b m c b = m ",
"1XfX6X1X-XOX.X/.(.(.E.E.E.).!.OX~.Q.A.Z.A.B.C.L.j.p.}.6XJXPXPXLXLXLXJXKX].C.C F Z.,Xl.( [.(.V @.@.%.#.$.$.=.=.+.} m m = = = = b ",
"1X,XfX1X-X}.).E.(.(./.(.(.G.D.E.R.!.W.F.F.S.V.c.j.F.5X,X$XGXJXLX@ # @ KXKXC.e.Y aX5X<Xn.~ Q U ` &.X.+.-.=.&.&.=.#.M 8 8 8 c l u ",
"&X&X<X<X%X|.E.I.J.K.J.U.Y.G.G.S.T.Q.`._.Q.R.T.F.F.,X5X6X1XJXPX+ n B # @ @ b.t.C jX1X5X).~ Q J Q Z G -.O.#.%.=.=.+.H m 9 l c k z ",
"*X*X;X-X;X|.F.I.J.K.K.U.U.I.I.D.D.W.$X$X@X@X;X;X1XfX6X6XfX$XUX].$X5XJX# B f.a.r.hX*X5X,Xc._ R H H K ~ ,...%.$.$.%.A 8 * * 7 l h ",
"%X*X=X*X^.~./.H.K.b.c.P.L.K.J.D./.W._.@X$X&X;X_.GXT.K.U.D.Q.E.).#X5XUXM L a.e.e.s.aX5X5XD.M.! S H S H / [ &.*.%.<.M v A Z 7 c > ",
"*X-X*X=X~.Q./.U.P.c.[.x.l.b.K.Y.(./.'.^.`.@X}.R.(.P.n._ W W Q ( ) b.b.J P s.sX0X4XsXrXfX2Xm.~ D S Z I K 6.#.*.&.} n H M m c = + ",
"&X;X+XQ.T.F.I.L.c.l.l.[.l.b.K.J.K.K.Y./.^.!.Q.G.Y.l.z.m.R T T P D D U Q p.d.4X0X7XeXuX3XN.f.! U S & K U %.*.%.#.U * U M w k 8 @ ",
"fX&X-X*XXXS.H.J.K.P.l.x.[.P.[.x.z.[.P.I.I.E.Z.b.b.z.M._ R ~ ! P D U / f.p.9X2XqXeX0XwX8Xf.W ~ G U P [ @.$.*.*.+.J M I A x 6 m @ ",
"fX1X#X#XOX XH.b.x.v.M.M.B B B M.m.x.x.x.L.U.c.z.M.) ( ~ W L P I Q M.M.x.j.tX0XwXwX0XwXwXd.} $ ] N X.@.%.%.*.*.%.P b A I l 6 b + ",
"1X1X&X@X%X~.H.z.d.n.m.) ) ) ) _ ) m.m.f.v.x.i.u.( ( / ( ( I I Q / x.l.l.B.4XXXoX4X2XiX3XC ] $.$.$.%.%.&.&.&.*.=.L 9 S n x k x # ",
",X,X&X_.#X$X~.G.c.m._ W W / ! K ( R E ) ) ^ Q G T ~ ~ R / I / ( / M.b.d.A.F.G.oXB.N.B.9Xe.] %.$.$.%.%.%.&.&.&.,.K v > > j u 7 # ",
"#X<X&X_._.$X,X}.B.d.( Y Y T L / / / W / ( ^ T } U Y / ! / Q T _ _ ) M.m.k.J.B.V.j.p.d.p.t.<.@.%.%.%.&.&.*.*.&.} 7 8 m A U : g B ",
"%X&X$X_._.$X,X=XH.c.v.n.( W ( / ( / L ! / ) Q ` G Q ! Q ! ! P E M.H Z M.m.^ f.f.u.a.r.0.} $.#.%.%.*.&.*.*.*.%.' M m n J } 2 j & ",
"%X$X@X~._.#X&X+XE.E.).L.b.x.f._ _ ! L L ( ) ( ~ T Q T Q J ! ~ ! [.H ! ^ _ L Q Y u.G F | &.#.%.&.&.*.*.<.,.,.&.T m % $ U A 1 p & ",
"`.#X~.W.%X@X@X,X}.OXOX).Q.H.L.x.) W ( _ ^ B ^ ^ ^ ) ~ W Q Q ! I m.[./ ^ ) ! Y T F ' } $.$.%.&.&.*.,.<.<.<.<.&.! 8 l * ' H 6 h & ",
"_.`.).OXfX#XOX$X`.%X#X=X~.F.W.(.L.c.k.[.[.x.x.x.[.[.x.P.f.E ~ W E I.x.z.f.~ a.u.' %.%.&.%.%.*.*.<.<.<.<.>.,.>.A 7 z S [ S s a ^ ",
"@X}.E.#X6X+X|.#X$X&X1X#X=XQ.~.+X%XQ.E.(.J.L.Y.L.P.P.b.].v.c.p.u.i.N.c.c.c.p.p.w.>.#.%.%.&.&.%.*.<.<.,.,.>.,.2.K v 6   [ H a i n ",
"_.OX|.@X&X|.~.@X&X<X,X,X&X_.+X+X&X#X^.W.E.'.'.J.J.K.b.J.x.U.k.r.p.h.B.d.B.k.u.} $.%.%.&.%.&.5.4.<.<.>.>.:.:.;. .| I H L : q q 2 ",
".X+X+X%X%X.XOX#X#X&X<X<X,X$X-X%X+X,X@X`.W.~.!.(.I.].P.I.b.I.b.r.d.p.c.p.j.p.a.} | 4.3.4.3.8.w.2.,.>.>.:.6.:.o.{ { =.] A j q t O ",
"|.+X+X#XOX).OX&X%X#X#X@X@X,X&X#X+X-X+X$X`.~.^.~.G.'.V.(.P.H.H.i.p.i.p.i.V t.' *.*.&.*.;.=.8.7.>.>.:.:.:.1.:. .{ { } S ; j u O o ",
"_.+XOX*XOXXX+X#X@X`.^._.~._.#X@X`._.`.%X$X^.^.T.~.~.B.G.J.H.J.i.r.u.u.y.g.g.| 1.4.3.4.3.5.9.3.>.:.:.:.6.1.;.{ { { g.m k r O o ; ",
"OX|..X=X|.OX%X#X#X@XW./.W.~.~._.~._.`.`.`.`./.H.`.}.Z.A.H.K.l._ V Y F g.' ` >.,.&.&.=.=.5.7.:.:.6.6.6.1.1.;.{ { { Y n 2 . o ; ; ",
"OXOX@X%X.X#X-X#X#X`.E.U.(.!.^.'./.!.'./.'.Q.H.D.~.).S.N.U.c.M.R g.g.' a.y.5.8.7.5.5.5.3.7.5.:.2.2.1.1.2.1.-.{ { { ~ 9 ] O , 5 5 ",
"+X@X1X#X-X&X+X-X@X!.U.J.U.H.'./.(.'.].L.J.H./.Y.D.S.U.l.c.x._ T ` ` ' y.t.5.4.:.,.6.1.8.9.1.1.3.4.1.1.2.:.o.{ {  .E 7 . W t 0 0 ",
"~.&XfX<X,X<X-X*X%X/.b.].U.U.I.I.(.].K.z.v.L.].I.L.K.c.l.v.f.! U } ` ' F w.q.q.5.1.:.,.8.8.:.3.8.5.1.2.2.:. .{ { .._ . . ; - 5 5 "
};
