/* XPM */
static char *bfd1c9e7f6c14b4cac9898e2719732edkynWXx9lKS9fjRMX[] = {
/* columns rows colors chars-per-pixel */
"64 64 240 2 ",
"   c #1E2C24",
".  c #5C220B",
"X  c #472B13",
"o  c #6D3016",
"O  c #773C22",
"+  c #502610",
"@  c #5E4B2D",
"#  c #664426",
"$  c #68542E",
"%  c #6C5A34",
"&  c #745E38",
"*  c #784A2D",
"=  c #6E613E",
"-  c #385A54",
";  c #39534B",
":  c #3B635C",
">  c #35635F",
",  c #2D6D6E",
"<  c #346562",
"1  c #356964",
"2  c #3B6B65",
"3  c #326D6C",
"4  c #3B6C66",
"5  c #3A716D",
"6  c #2A6E71",
"7  c #276D72",
"8  c #2B7175",
"9  c #26737C",
"0  c #2A747B",
"q  c #277177",
"w  c #357473",
"e  c #397573",
"r  c #3C7976",
"t  c #3D7C7A",
"y  c #35787A",
"u  c #316F70",
"i  c #465E55",
"p  c #45594D",
"a  c #4C655A",
"s  c #47645A",
"d  c #576858",
"f  c #746748",
"g  c #686B56",
"h  c #746D54",
"j  c #77725C",
"k  c #6C684F",
"l  c #446D64",
"z  c #476E66",
"x  c #45726B",
"c  c #4B746B",
"v  c #4D746A",
"b  c #537A6E",
"n  c #58756A",
"m  c #4C7B74",
"M  c #427E7B",
"N  c #467974",
"B  c #547D73",
"V  c #5B7C73",
"C  c #587A76",
"Z  c #536D63",
"A  c #687669",
"S  c #767463",
"D  c #75776A",
"F  c #757A6C",
"G  c #7A7C6D",
"H  c #7A7765",
"J  c #667B72",
"K  c #737C73",
"L  c #757E7A",
"P  c #7B7A73",
"I  c #606E66",
"U  c #843B1C",
"Y  c #803F24",
"T  c #93431D",
"R  c #935939",
"E  c #8B4C2B",
"W  c #AA572C",
"Q  c #92623E",
"!  c #AE6438",
"~  c #C56A3C",
"^  c #87745A",
"/  c #997756",
"(  c #906D4B",
")  c #A8764B",
"_  c #B67546",
"`  c #A77B59",
"'  c #B97C56",
"]  c #A86844",
"[  c #837C68",
"{  c #897A75",
"}  c #927C76",
"|  c #9A7C64",
" . c #A57D65",
".. c #C97A49",
"X. c #E37F49",
"o. c #4E817A",
"O. c #46807C",
"+. c #5B8275",
"@. c #54847B",
"#. c #5C857A",
"$. c #5B887E",
"%. c #568278",
"&. c #62867A",
"*. c #6A857A",
"=. c #638A7D",
"-. c #6A8578",
";. c #74827C",
":. c #78857B",
">. c #7B846F",
",. c #EC943F",
"<. c #D68F3F",
"1. c #B3825A",
"2. c #828374",
"3. c #8C8574",
"4. c #848778",
"5. c #868879",
"6. c #8A8B7C",
"7. c #8F8877",
"8. c #938C7B",
"9. c #998779",
"0. c #9B917E",
"q. c #8E816B",
"w. c #A88467",
"e. c #B78A6A",
"r. c #A7887C",
"t. c #B68C77",
"y. c #A6927B",
"u. c #BA927B",
"i. c #D68B47",
"p. c #C9895A",
"a. c #CD9158",
"s. c #D7955B",
"d. c #D68B51",
"f. c #E4864B",
"g. c #EA9647",
"h. c #F4994A",
"j. c #E69758",
"k. c #F59B57",
"l. c #EC8B52",
"z. c #F8A15D",
"x. c #C58D65",
"c. c #D28C66",
"v. c #C99468",
"b. c #D89867",
"n. c #C89976",
"m. c #D99A74",
"M. c #E69C69",
"N. c #E89D77",
"B. c #F49F62",
"V. c #D8A379",
"C. c #CCA17E",
"Z. c #FBAD6C",
"A. c #F7A567",
"S. c #FCB06E",
"D. c #E8A777",
"F. c #F6AC74",
"G. c #FAB178",
"H. c #EDA46B",
"J. c #247683",
"K. c #297782",
"L. c #237985",
"P. c #22798A",
"I. c #2C7D8B",
"U. c #2B7A85",
"Y. c #327E8B",
"T. c #387D82",
"R. c #36818A",
"E. c #398389",
"W. c #3B8185",
"Q. c #448584",
"!. c #43858A",
"~. c #4B878C",
"^. c #4D898C",
"/. c #4C8684",
"(. c #558A83",
"). c #5C8C83",
"_. c #518A8B",
"`. c #598987",
"'. c #5B908B",
"]. c #648E82",
"[. c #6B8D81",
"{. c #688A89",
"}. c #768483",
"|. c #788483",
" X c #768D82",
".X c #6B9285",
"XX c #699589",
"oX c #739285",
"OX c #73968A",
"+X c #77998C",
"@X c #6A9190",
"#X c #7C9F92",
"$X c #769692",
"%X c #7BA397",
"&X c #988C86",
"*X c #9B9384",
"=X c #949284",
"-X c #859592",
";X c #999695",
":X c #8A9186",
">X c #AB8982",
",X c #A58984",
"<X c #B48D83",
"1X c #B58F89",
"2X c #A49484",
"3X c #AB9B8C",
"4X c #A79789",
"5X c #B59084",
"6X c #B5928A",
"7X c #B79A88",
"8X c #A69892",
"9X c #B89A93",
"0X c #82A295",
"qX c #84AA9D",
"wX c #84A79A",
"eX c #B3A194",
"rX c #BAA699",
"tX c #B2A294",
"yX c #BB9EA8",
"uX c #86ADA0",
"iX c #8AB0A2",
"pX c #BDA9A6",
"aX c #B9A6AD",
"sX c #C69B8E",
"dX c #C8A487",
"fX c #C6AA9B",
"gX c #D5AA94",
"hX c #D3AC92",
"jX c #F4AC85",
"kX c #F7B587",
"lX c #FCBC92",
"zX c #E7AD8F",
"xX c #C5ABA3",
"cX c #CCB2A4",
"vX c #C6B2A7",
"bX c #D5B8A6",
"nX c #C8A7B5",
"mX c #FDC798",
"MX c #BCA5C6",
"NX c #CAAFCB",
/* pixels */
"^.^.^.^._._._._._._.^._._._._._._._._._._._._._._._._._._._.'.'.'.'._._._._._._._._._._._._._._._._._._._._._._._._._._._._._._.",
"^.^.^.^.^.^.^._._._._._._._._._._._._._._._._._._._._._._._.'.'._._._._._._._._._._._._._._._._._._._._._._._._._._._._._._._._.",
"^.^.^.^.^.^.^._._._._._._._._._._._._._._._._._._._._._._._._._._._._._._._._._._._._._._._._._._._._._._._._._._._._._._._._._.",
"^.^.^.^.^.^.^.^._._._._._._._._._._._._._.^.^._._._._._._._._._._._._._._._._._._._._._._._._._._._._._._._._._._._._._._._._._.",
"^.^.^.^.^.^._._._.`.@X@X@X@X$X$X$X$X$X$X@X@X{.'._.(._._._._._._._._._._._._._._._._._._._._._._._._._._._._._._._._.^._._._.^._.",
"^.^.^.^.^.^.`.{.-X-X-X;X;X&X&X,X,X,X8X8X8X;X;X;X-X X)._.^.^.^.^.^.^.^.^._._._._._._._._._._._._._._._._._._._._._.^.^.^.^.^.^.^.",
"^.^.^.^.^.(.;.4X6X&X&X9.r.r.r.r.r.<X<X1X6X6X6X9XfXdX8.=._.^.^.^.^.^.^.^.^.^.^.^.^.^._._.^.^._.^.^.^.^._._._.^.^.^.^.^.^.^.^.^.^.",
"^.^.^.^.^.V h [ } { { } } r.r.>X>X>X<X<X6X6X6XsXzXD.x.>.(.^.^.^.^.^.^.^.^.^.^.^.^.^.^.^.^.^.^.^.^.^.^.^.^.~.~.^.^.~.^.^.^.^.^.^.",
"^.^.^.^./.a X % A P { } } r.r.,X,X>X<X1X6X6X6X6XgXc.E j (.~.~.~.^.^.^.^.^.^.^.^.^.^.~.^.^.^.^.^.^.^.^.~.^.^.^.~.~.~.^.^.^.~.^.^.",
"^.^.^.^./.i   ; A P { } r.r.r.r.r.<X<X6X6X6X<X6XsX .X g (.~.~.~.~.^.^.^.^.^.^.^.^.^.^.~.~.^.^.^.^.~.~.~.^.^./.Q.Q.Q.Q.Q.~.~.~.~.",
"!.!.~.!./.l   i A P { 9.,X,X>X,X>X>X>X6X6X<X<X<X5Xu.( I (.~.~.~.~.~.^.^.~.~.~.^.^.^.^.~.Q.!.!.Q.!.!.!.!.!.!.Q.Q.Q.Q.Q.!.!.!.!.!.",
"!.!.!.!.!.N - Z A { } 9.,X>X>X>X<X>Xy.r.<X<X5X<Xt.u.w.A /.!.!.!.!.~.~.~.^.^.~.~.~.!.!.!.Q.Q.!.!.!.!.E.E.E.E.W.E.E.!.!.!.E.!.!.!.",
"Q.Q.!.!.!.M s I P { 9.r.r.t.t.t.t.t.t.t.<X5X5X5X<X5Xy.-.Q.!.!.!.!.!.!.!.!.!.!.!.!.!.!.!.!.!.!.E.E.E.E.E.E.E.E.E.E.E.E.E.E.E.E.E.",
"Q.Q.Q.!.!.Q.v A { } r.w.e.x.p.p.p.p.x.x.u.u.<X<Xt.5X4X*.!.E.E.!.!.E.E.E.E.E.!.E.E.E.E.E.E.E.E.E.E.E.E.E.E.E.E.E.E.E.E.E.E.E.E.E.",
"Q.Q.!.!.E.Q.V K { | ` p.i.g.g.g.g.g.g.j.s.v.u.<Xt.5X4X[.Q.R.E.E.E.E.E.E.E.E.E.E.E.E.E.E.E.E.E.E.E.E.W.E.R.R.R.R.R.E.R.R.E.E.E.E.",
"E.E.E.E.E.M J { / ) ..f.l.j.b.s.s.s.j.h.g.g.v.x.u.<X6X XQ.E.R.R.R.E.E.E.E.E.E.E.E.E.E.E.R.R.E.R.E.R.E.R.Y.Y.R.Y.R.Y.R.R.R.R.R.R.",
"R.E.R.E.W.C [ / ) _ p.n.sXyXnXnXnXnXxXdXs.g.g.d.v.u.5X*X%.W.E.R.R.R.R.R.E.E.R.R.E.R.R.Y.Y.Y.Y.Y.Y.Y.Y.Y.Y.Y.Y.Y.Y.Y.Y.Y.Y.Y.Y.Y.",
"R.R.W.W.M D / ) ' t.9XaXMXNXNXNXNXNXNXNXnXdXj.g.g.c.n.7X XW.R.R.R.Y.Y.Y.Y.Y.Y.Y.Y.Y.Y.Y.Y.Y.Y.Y.Y.Y.Y.Y.Y.Y.Y.Y.Y.Y.Y.Y.Y.Y.Y.Y.",
"I.Y.Y.T.V ^ ) ' t.yXaXaXxXfXgXgXzXzXbXbXnXnXgXM.g.g.v.n.*Xo.Y.Y.Y.Y.Y.Y.Y.Y.Y.I.I.I.I.I.I.I.Y.I.I.I.I.Y.I.I.I.Y.I.I.I.I.I.I.I.I.",
"I.I.Y.N j ( ` u.9X7X7Xn.V.D.D.F.F.G.G.G.jXzXzXzXH.h.g.b.7X[.U.I.I.I.I.I.I.I.I.I.I.I.I.I.I.I.I.I.I.I.I.I.I.I.I.I.I.U.U.U.U.U.L.L.",
"R.I.y n ( ` r.6X5Xn.v.b.M.H.A.Z.Z.Z.S.S.S.S.G.jXjXH.h.j.m.*XT.P.I.I.I.I.I.I.I.I.I.I.I.P.P.P.P.P.P.P.P.L.L.L.L.U.U.L.L.K.L.L.K.L.",
"I.U.N h ( w.t.u.v.v.b.b.M.M.H.A.Z.Z.S.S.Z.Z.S.G.kXG.z.g.j.u.@.U.P.P.P.P.P.P.P.I.P.P.P.P.P.P.P.P.P.P.P.P.L.L.L.P.P.P.P.L.P.L.L.L.",
"P.K.n ( / w.e.v.v.b.b.b.b.M.M.H.A.Z.Z.Z.Z.S.S.S.G.G.S.h.h.m.:.K.P.P.P.P.P.P.P.P.P.P.P.P.P.P.P.P.P.P.P.P.P.P.P.P.P.P.P.P.P.P.P.P.",
"P.y g ( 1.e.e.v.x.a.a.p.c.c.c.M.M.B.A.A.Z.Z.Z.S.S.G.G.A.k.k.y.r P.P.P.P.P.P.P.P.P.P.P.P.P.P.P.P.P.P.P.P.P.P.P.P.P.P.P.P.P.P.P.P.",
"K.x h / w.e.e.1.' ' ' ' ' ......f.f.l.k.k.A.A.Z.Z.S.Z.F.A.k.n.m P.P.P.P.P.P.P.P.P.P.P.P.P.P.P.P.P.P.P.P.P.P.P.P.P.P.P.P.P.P.P.P.",
"0 Z ^ / 1.` ) ) ) ) ] ] ] ] ! ! ~ ~ X.X.l.k.k.z.A.A.A.F.F.z.b.-.J.P.P.P.P.P.P.P.P.P.P.P.P.P.P.P.P.P.P.P.P.P.P.P.P.P.L.L.L.P.P.P.",
"y A / / ) ( Q Q R R R R E O O U T T W ! ~ X.f.l.l.k.k.A.F.A.H.6.J.P.P.P.P.P.P.P.P.P.P.P.P.P.P.P.P.P.P.P.P.P.P.P.P.P.L.L.L.L.L.L.",
"x j / ( Q E E * * O O o . . . . . . o U U T W ! ~ ..d.j.M.k.z.y.y P.P.P.P.P.P.P.P.P.P.P.P.P.P.P.P.P.P.L.P.L.L.P.P.L.L.L.L.L.L.J.",
"Z h ( & * # # o o . . . . o Y E E O O U O U T T T W ! ..s.h.k.n.M P.P.P.P.P.P.P.P.L.P.P.P.L.L.L.L.L.L.L.L.L.J.L.L.L.L.L.L.L.J.J.",
"d f & $ # # # # * * E R ] ) ' ..c.c.c.c.m.N.M.s._ W W ! i.g.h.m.m P.L.P.P.P.P.P.J.J.L.L.L.L.L.L.L.L.L.L.L.L.L.L.L.L.L.P.L.L.J.L.",
"d = $ # # $ f (  .t.n.m.N.jXjXjXlXlXmXmXmXmXmXkXD.a._ ! _ ,.h.b.V P.P.P.P.P.L.L.L.J.L.L.L.L.L.L.L.L.L.L.L.L.L.L.L.L.L.L.L.L.L.L.",
"d % $ # $ f ^ | t.n.dXjXjXkXlXlXmXmXmXmXmXmXmXlXD.b.1._ ..,.,.M.J J.L.L.L.L.L.L.L.L.L.L.L.L.L.L.L.L.L.L.L.L.J.L.J.J.J.L.L.J.L.K.",
"d % $ $ = h ^ / w.e.n.m.N.jXkXlXlXmXmXmXmXmXmXjXV.b.x.p.p.<.,.s.A 9 L.L.L.L.L.L.L.L.L.L.L.L.L.K.K.L.K.K.K.K.K.K.K.K.K.9 q q 9 9 ",
"g % % f k j ^ ^ / w.e.x.b.M.N.D.jXkXkXkXkXjXD.V.n.n.C.m.v.i.,.a.A 9 J.L.J.L.L.L.L.L.L.K.K.K.L.K.K.K.K.K.K.K.K.K.K.K.9 q q q q q ",
"h & % h S S H H ^ ^ / ` ' p.p.c.b.b.M.m.m.n.n.dXdXdXhXhXC.a.<.a.A 9 9 J.K.K.K.K.K.K.K.K.K.K.K.K.K.K.K.K.0 K.0 0 q q q 7 6 6 6 6 ",
"j & f S D D D S S H ^ ^ ( / ) ` ` 1.e.e.u.7X7X7XeXrXfXhXhXn.i.a.A q 9 9 9 K.K.K.K.K.K.K.K.0 0 0 0 0 0 0 0 0 8 8 7 7 , , 6 , , , ",
"H & k D F F F D F F G [ ^ ^ ^ | w.w.y.y.7X7X7X7XeXrXfXbXbXdXa.a.A 7 7 8 0 0 0 0 0 0 0 8 6 6 6 6 6 8 8 8 8 8 8 8 , , , , , , , , ",
"H f h K K F F D F D D G [ [ [ 3.9.y.y.y.2X2X2X7XeXfXcXbXbXdXa.a.A 7 8 8 8 8 6 6 8 8 8 , , , , , , , 6 w y y e u , , , , , , , , ",
"A f j L K K K F F D D D S H [ 3.8.8.0.y.0.y.2X3XeXfXcXbXbXhXv.s.D w y 8 8 6 , , , , 6 , , , , 3 , 3 w e y r e , , 6 , , , , , 3 ",
"n k j L L L K K F F F S S S H G 3.3.7.9.9.y.4X3XeXfXbXbXbXfXv.s.[ N N 3 , , , , , , , , , 3 3 3 , 3 3 3 w e e w e r w e e e w w ",
"c g D ;.;.L K K F F F D S S S H [ q.7.8.0.2X4X3XrXfXcXcXcXcXV.s.^ n B e w w w w w w e e e e e e w e r t t r r r r r r t M M t e ",
"x g S ;.|.;.L K K F D F D D S S H [ 3.7.0.2X3X3XrXfXcXcXcXcXhXc.f z {.B e e e e w w e e e r t t t t t Q.M t r t O.Q.Q.Q.t r e 3 ",
"z k H ;.|.;.L K K F D D D D S S H [ 3.7.8.0.4X3XeXrXfXxXcXcXhXv.k a J  Xx 5 3 1 1 3 w e e r t t Q.M t t t M Q.Q./.^./.e 3 3 3 1 ",
"l g G |.|.;.L K K K F D F D D D G G 2.3.3.8.*X4XeXrXrXrXxXcXhXn.h Z A  Xv > > < < < 1 1 3 5 e t M M t t M O./.O.M Q.t 1 1 < < < ",
"2 A P |.|.;.L K K F F F F D F D D G G 2.3.8.0.4X3XeXeXrXfXcXhXdXS n J J l : < < < < < < < 1 5 5 4 5 5 M N t M M t t 5 < < < < < ",
"< n |.|.|.;.L K K K K F D F D D F G G 2.3.7.8.2X4X3X3XrXxXcXbX3Xn B %.v 2 2 4 2 1 1 1 1 2 1 < 1 1 < 1 N m N N M N 5 1 < 1 1 2 4 ",
"1 m }.|.|.|.;.K K L K F D F D D G G G 2.3.3.8.0.2X4X3XeXxXcXbX=Xz 4 2 < 2 4 < > < < 2 x x x 2 4 4 5 N m o.@.o.O.o.o.m m m N m o.",
"e N }.|.|.|.L K K F F D D F D F G G G G 2.3.7.8.0.2X3XeXfXcXvXK l x 2 > < x c 4 x m m m B c c m o.m o.m o.@.@.(.).(.).).@.m o.@.",
"e N ).}.|.|.;.K K F D D D F D G G G G 2.2.3.3.8.8.*X4XeXfXcXeXn 4 x x x x m $.$.$.m x x z c m m N @.@.(.@.@.).).(.@.).).).$.B m ",
"r e @.}.|.|.;.K K K F F F D G G G G G G 2.3.3.3.8.*X4XeXrXvX=Xz x N B @.$.).).@.m 2 : : : : m @.m o.@.@.(.@.@.(.@.@.).XXXXXX).@.",
"t M o.=. X|.;.L K K G G F D G G G G G G 2.4.4.6.8.*X4XeXxXxX:.v m B m %.#.#.%.c 1 : - - - : c %.@.m m @.).$.@.@.m m x m ).OXOXXX",
"t M N B [.|.;.L K F G G F D G G G G G G 2.2.4.6.=X*X4XeXrXrX:.+.#.=.+.B +.B c 2 : : : - : l x B @.m m %.@.@.@.).'.).).@.@.).XXXX",
"O.O.O.m =.|.L L K F F F F D G G G G G G 2.2.4.6.8.*X3XtXpXtX:.=..X[.+.b +.+.b l z z : z B B m m %.%.%.$.$.$.).].).).).].).).).).",
"(.(.(.@.&.;.L K K F F F D G G G G G G >.2.2.5.6.=X2X3XeXpX;X*.=.=.+.b b B b b b b B B +.B %.B m b B #.=.#.B %.%.].].].$.%.m ).'.",
"(.(.(.).=.;.;.K K F F F D D F F G G G 2.2.4.5.6.=X*X3XrXpX:X=.+.+.+.B +.=.+.=.+.#.%.B B B B $.#.+.#.]..X=.=.+.B #.#.].OX%XOXXXXX",
"(.o.(.).).*.;.L F F D D F F F F D G G 2.2.4.5.8.=X*X3XpXpXoX[.=.+.#.=.]..X=.+.=.].=.#.+.+.+.#.#.+.]..X.X&.#.+.z B ].XX%XuXqX%XOX",
"m m @.$.#.*.;.K K F F D D F F F D G G 2.2.4.5.6.=X*X3XvX:X&.&.=.b b B +.=.+.+.=.=.=.=.=.=.+.+.B #.[.=..X[.]..X=..XXX=.].OX#XOXOX",
"x x x c V V -.;.K F F F F F F F D F G 2.2.4.6.6.6.*XrXtX;.+.+.=.+.z b b +.B B &..X#X%X%XOX].&.=.=.[.[.=.=.OX.X&.=.].=.=.OX.X=.OX",
"x : - s n n V *.K K G F F F F F G G G 2.4.5.5.5.=X3XrX;X*.+.b V +.+.+.=.=.=.+.+XwXwXqXqXqX#X=.[.oXOX.X[.=.].=.b z b +.+.oX.X+.=.",
": - - - z v v J ;.K F F D D F F F G G G 2.5.5.6.*XtXtX:.-.J V +.-.*.-.*.=.&.OXqXqXwXwXqXiXuXOX.XoX.X.X=.].OX[.=.v z B +.=..X&.=.",
"- - ; - s z v n J K K F F F F F F G G >.4.5.5.6.*X8X=X-.*.oXoX*.-.*.*.oXOXoXoX0X%XwXwXqXiXiXqX%XOX&.B B ].OX[.[.=..X+XOX#XOX]..X",
"; ; - - s z z n I K K F F D F G G D G 2.4.5.6.=X*X6.F -.oXoX+X+X*.J *.+X0X0X0X0X#X+X#X0X0XqXiXqX#XOX%XqXqX%X.X[.&.[.OXOX+X.X].=.",
"a s a s s s s a d I K F F D D G G G G 2.2.5.6.8.F d I -.oX#X0X-X-.-.n oX#X-X0X0X#X+X*.[.J &..X+X.X=.#XwX%XOX*.J n *.-.oX*.&.+.+.",
"a i s a i p ; p a a d A F F F F G G >.2.4.5.6.D p p a J oX0X0X[.J *.J &.*.*.oX+XoX X-.V Z s V =.=.+.[.#XXXv s s i n J n i a &.*."
};
