/* XPM */
static char *_6894155cf05445e8b7f905866a8860bIdVmpLYkMXQo4JoX[] = {
/* columns rows colors chars-per-pixel */
"64 64 206 2 ",
"   c #161513",
".  c #191614",
"X  c #1C1A16",
"o  c #1E1C19",
"O  c #221E1A",
"+  c #211C17",
"@  c #25201C",
"#  c #2A221D",
"$  c #38241F",
"%  c #252422",
"&  c #2D2521",
"*  c #2A2826",
"=  c #2A2A2B",
"-  c #312621",
";  c #3B2522",
":  c #342A25",
">  c #322D2A",
",  c #3A2E29",
"<  c #3E2825",
"1  c #3D312C",
"2  c #33302F",
"3  c #2E2E31",
"4  c #2F3033",
"5  c #313235",
"6  c #3C3634",
"7  c #35363A",
"8  c #37383C",
"9  c #3A3A3E",
"0  c #302F30",
"q  c #452C2A",
"w  c #442B29",
"e  c #41342F",
"r  c #48312F",
"t  c #433632",
"y  c #4D3433",
"u  c #453935",
"i  c #493B36",
"p  c #4B3D39",
"a  c #453B3A",
"s  c #533A3A",
"d  c #59383B",
"f  c #4C2F30",
"g  c #4E413D",
"h  c #50423E",
"j  c #3D3D43",
"k  c #5B3E40",
"l  c #403E41",
"z  c #623E42",
"x  c #3F4046",
"c  c #424146",
"v  c #4B4342",
"b  c #44444B",
"n  c #48474E",
"m  c #49484F",
"M  c #534542",
"N  c #5A4545",
"B  c #564846",
"V  c #584A47",
"C  c #554A4A",
"Z  c #5B4D4A",
"A  c #5E4748",
"S  c #5E504E",
"D  c #4D4C53",
"F  c #514F56",
"G  c #594F50",
"H  c #525056",
"J  c #5D5252",
"K  c #55545A",
"L  c #59575D",
"P  c #5D5B5D",
"I  c #614E4E",
"U  c #6C494E",
"Y  c #694347",
"T  c #60514F",
"R  c #754B52",
"E  c #784D54",
"W  c #635554",
"Q  c #695556",
"!  c #675857",
"~  c #62565A",
"^  c #6B5659",
"/  c #65595B",
"(  c #6B5C5C",
")  c #735A5E",
"_  c #765359",
"`  c #70484E",
"'  c #6E605E",
"]  c #5E5B61",
"[  c #625E64",
"{  c #6B5E62",
"}  c #735E61",
"|  c #7A5D62",
" . c #646166",
".. c #6D6264",
"X. c #6C646B",
"o. c #6E686E",
"O. c #666468",
"+. c #746264",
"@. c #7A6366",
"#. c #75666A",
"$. c #7A6668",
"%. c #74696D",
"&. c #7B6A6C",
"*. c #6F6970",
"=. c #6A6770",
"-. c #746B73",
";. c #7B6D73",
":. c #796F78",
">. c #7C7175",
",. c #76717B",
"<. c #7B737B",
"1. c #7F7879",
"2. c #7B706F",
"3. c #82545C",
"4. c #855961",
"5. c #8C5D66",
"6. c #816A6D",
"7. c #88646A",
"8. c #92636C",
"9. c #826E72",
"0. c #8C6C72",
"q. c #986B74",
"w. c #827275",
"e. c #84757B",
"r. c #8A767A",
"t. c #85797D",
"y. c #8B7A7D",
"u. c #8B7377",
"i. c #9B757D",
"p. c #A06D77",
"a. c #A4737D",
"s. c #7D7781",
"d. c #7E7983",
"f. c #817780",
"g. c #847B84",
"h. c #8A7D84",
"j. c #847E89",
"k. c #897F89",
"l. c #927D82",
"z. c #9C7D84",
"x. c #A87680",
"c. c #A37C85",
"v. c #AC7B85",
"b. c #AF7E88",
"n. c #B17E89",
"m. c #8C8285",
"M. c #86818C",
"N. c #8B828C",
"B. c #928386",
"V. c #93858B",
"C. c #9C848C",
"Z. c #958A8D",
"A. c #9A8B8E",
"S. c #9A8086",
"D. c #858491",
"F. c #8A8692",
"G. c #8B8995",
"H. c #8A8C99",
"J. c #918691",
"K. c #958A93",
"L. c #9B8E93",
"P. c #988C96",
"I. c #8D919E",
"U. c #9C9194",
"Y. c #9C919A",
"T. c #92929F",
"R. c #A8838B",
"E. c #B3838E",
"W. c #A28D92",
"Q. c #A78891",
"!. c #B98A95",
"~. c #B68A94",
"^. c #A29296",
"/. c #A3949A",
"(. c #A59A9A",
"). c #AA9B9E",
"_. c #A79599",
"`. c #BB939C",
"'. c #8E93A0",
"]. c #9B96A1",
"[. c #979AA7",
"{. c #A59BA3",
"}. c #AC9DA2",
"|. c #B39EA4",
" X c #BC9CA4",
".X c #BF97A0",
"XX c #9CA1AE",
"oX c #ADA2AB",
"OX c #AAA1A8",
"+X c #B1A3A6",
"@X c #B4A5AA",
"#X c #BAA3AA",
"$X c #B6A9AD",
"%X c #B6ABA9",
"&X c #A9A9B5",
"*X c #BBADB3",
"=X c #B1A9B2",
"-X c #BDB1B8",
";X c #C1ABB2",
":X c #C2B4BB",
">X c #C5B5BB",
",X c #C0A0A8",
"<X c #B9B8C3",
"1X c #C6B9C1",
"2X c #CABEC6",
"3X c #CEC2CA",
/* pixels */
"(.%X/.Z.1.%.m.Z.A.U.L.L.L.L.L.K.K.Z.Z.V.N.m.m.h.h.h.h.h.g.g.g.g.g.g.h.m.V.V.V.B.B.h.<.-.-.-.*.o.o.X.o.o.o.o.o.X.X.X.X.X.X.o.-.;.",
"Z.(.m.%.O.O.m.A.U.U.L.L.A.Z.m.g.1.<.-.-.-.o.X.X.X.X.X.X.X.X.X.X...#.%.-.<.w.e.w.w.>.-.-.-.-.*.*.o.o.o.o.o.o.X.X.X.O.O.O.X.-.:.;.",
">.1.X. . .O.t.V.Z.Z.V.m.h.e.-.X. .[ [ [ [ [ ] ] ] ] [ O.X.O.O.O.O.O.X.o.-.-.;.;.;.;.-.-.:.:.<.<.,.,.-.-.-.*.X.X.X.O.O.X.-.-.;.e.",
"P P P P  .X.%.>.1.f.<.,.%.O.[ ] ] ] P L K L L K K K P [ O.X.O.O.O.X.X.*.-.%.;.:.:.<.<.<.h.j.j.j.j.j.j.j.j.<.-.-.-.-.-.:.>.w.e.e.",
"P P P [ O.X.o.o.-.-.X. .] ] ] P L K K H D D n n b b n D K L ] ] ] [  .X.X.%.:.>.:.<.<.<.<.<.<.<.<.<.<.<.j.N.M.h.h.h.h.h.l.l.z.z.",
"P P /  .O. . . .[ [ ] L K K K K K D D n c j 8 8 7 5 5 5 7 j 8 8 j j c D L X.<.g.<.<.X.P C C C C C C C Z / %.>.w.w.r.l.l.z.z.c.R.",
" . . . .[ P K K K K K H D D D D n n c c j 7 5 3 3 3 = = = = = = 3 7 c L -.j.G.K.P.K.K.N.1.[ C M v g g v C J ( } +.&.w.r.i.i.c.c.",
" . .[ ] L H D D F F D n n c c c j j j 8 7 4 = = = = = = = = = 3 8 L -.s.j.N.K.K.P.P.P.U.U.N.-./ C M M M M B I Q ^ } @.6.0.q.q.q.",
"] P K H D D D D D n b c j j j 8 8 7 7 5 3 = = = = = = = = = 5 D *.<.j.M.M.N.J.K.P.P.P.U.P.V.t.>...J C M M M B Z W ^ ) | 7.7.7.8.",
"K H D D n n n n n b c j j 8 7 5 5 3 3 3 = = = = = = = = 3 j [ <.j.j.j.M.M.N.N.J.K.P.K.K.K.N.h.t.>.%./ Z B M M B Z W ^ ) | | | | ",
"D D n b c c c c c x j 8 7 7 4 3 = = = = = = = = = = = 7 K -.j.M.j.h.j.M.M.N.N.N.K.K.J.N.m.j.h.t.e.>.X.~ G C B B Z I Q ) } | | } ",
"n b c j j j j j j j 8 7 5 3 = = = = * * = = = = = 3 b O.s.g.j.M.M.M.M.M.M.M.M.N.V.N.N.M.j.g.g.h.g.e.;.X./ J C B V Z W ^ ) } } | ",
"c j j 8 8 8 8 8 8 7 5 3 = = * * * * % * * = = = 7 K -.j.M.j.M.M.M.M.M.j.j.M.M.m.m.M.k.j.h.g.h.m.k.h.t.>.%.{ J C B Z Z W ^ ) } } ",
"j 8 8 7 5 5 5 5 5 5 = = = * % % % % % * = = = l [ s.j.M.N.N.N.M.M.M.j.h.h.M.M.M.h.h.h.j.m.m.m.N.N.m.h.e.;.#.Q Z B B Z W ^ ) } +.",
"7 5 4 3 = = = = = = * * % % % % % * * = 5 j F -.j.N.N.N.N.N.N.M.h.h.g.g.t.g.h.h.g.e.t.g.M.K.L.L.K.N.h.t.;.#.^ Z B B Z Z Q ^ ( ' ",
"3 = = = = = * % % % % % % % % % * * = 8 K -.g.M.M.N.N.N.N.N.N.M.k.h.h.m.Z.V.y.w.;.;.w.w.h.V.L.A.V.h.y.e.>.$.+.W Z Z Z Z S W Q ^ ",
"= = * * % @ @ @ @ @ @ @ % % % % * 3 D X.<.j.M.N.N.N.N.N.N.N.N.N.M.V.L.(.+XU.t.&.#.$.&.w.e.y.l.h.y.e.w.w.w.&.#.^ W Z Z Z Z Z S Q ",
"= * % % @ @ O O o O O @ @ % % % = K <.j.j.M.M.N.N.N.N.N.N.N.N.N.N.L.(.).A.;.Q S W ( #.$.&.;.w.w.w.>.;.;.;.;.$.+.! Z Z Z Z Z Z W ",
"% % % @ O O O O O O O O @ @ % = D s.D.D.M.N.N.N.N.N.N.N.m.m.M.m.V.L./.^.r.Q g i g W ( +.+.#.&.&.&.&.&.#.$.&.&.$.+.^ S Z V V Z T ",
"% % @ O o o O O o o o O @ % = n ,.M.F.F.F.F.N.N.N.k.h.h.h.h.h.m.V.A.A.B.&.S Z g i Z ( ( ( +.#.$.$.#.#.$.$.$.9.9.&.+.W Z Z Z Z S ",
"@ @ O o O O O O o o o o @ % 5 =.M.F.G.F.F.N.N.M.h.t.e.r.y.y.y.l.B.V.h.e.$.&.A.Z : p W ^ ( ( #.#.$.$.$.$.$.&.9.9.&.#.Q Z Z Z Z S ",
"o O o o o o o O o o O o @ % 8 ,.D.F.F.N.N.j.j.f.t.w.9.w.e.r.y.l.l.y.&.$.$.Z.).i # 1 Z ^ ( ( #.$.$.$.$.$.#.$.;.6.&.$.^ S S S Z S ",
"o o o o o X o o o o o O O % b ,.M.D.M.j.j.s.<.<.;.&.&.&.9.w.r.y.y.9.} Q ( W.Z.: # , Z ! ( +.#.$.$.$.$.#.+.$.&.&.&.$.( W S S S T ",
"o X X X X X X X o o o O @ = K ,.M.D.j.j.s.<.:.;.&.$.$.$.6.6.9.u.u.6.^ A W W.r.: # 1 Z Q ^ ( +.$.&.&.$.+.+.@.$.&.&.$.( Q W W W W ",
"X X X X X X X X X o o O % 7 [ <.j.D.j.d.<.:.-.-.%.$.+.@.@.$.6.9.6.$.Q N I l.&., , g W W / ( +.&.&.&.$.+.+.+.@.$.&.&.+.^ Q Q ! ! ",
"X X X X X X X X X o o @ * j *.d.M.D.j.s.<.<.-.-.-.#.+.+.} } @.$.$.+.W Z A ( V e M S W Q ! ( +.&.&.&.$.+.} +.@.$.6.6.+.( ^ ! ! ^ ",
"X X X X X X X X X o O % = K D.H.D.D.j.s.<.<.:.-.-.#.+.+.} } ) ) ( ^ W T Z Z i u B S W W / ( +.#.&.&.&.#.} } +.@.6.&.+.( ^ ^ ^ ( ",
"X X X X X X X X X o @ = K D.[.'.H.D.M.j.d.s.s.<.<.;.#.+.+.} ^ ^ ^ ! Q W S Z g p B S J W / { ..$.;.;.;.$.+.} } +.&.&.+.^ ^ ( ( ( ",
"X X X X X X X X o @ = ] T.XX[.[.I.H.D.D.D.M.j.j.j.f.f.<.$.} ( ^ ^ ! Q W W Z B M Z Z J W ( ....%.:.w.<.&.+.} } +.&.6.+.( ( ( ( +.",
"X X X X X X X X O =  .[.&X&XXX[.[.'.H.G.D.D.D.M.M.N.N.M.:.+.} ( ^ ^ Q Q ! Q W Q W W W { %.:.<.s.f.g.e.;.$.{ { +.&.w.$.} ( ' +.+.",
"X X X . X X X X % P &X<X&X&XXX[.[.'.I.H.G.F.D.M.N.N.N.N.h.w.$.+.^ Q Q Q ( #.&.&.#...#.<.h.M.M.M.j.g.f.;.#.{ ( +.&.w.$.+.( ' #.#.",
"X X . . X X X X c ].<X<X&XOX[.[.T.H.G.F.N.N.j.j.f.g.M.N.P.L.y.#.( Q W Q ( #.w.w.>.>.g.K.P.J.j.j.g.s.<.;...^ ^ +.;.w.&.+.( ( +.$.",
". . . . X X X O X.-X<X&X&X].Y.K.N.M.k.j.g.t.e.w.w.w.h.V./.}.W.w.+.^ Q ~ ( +.;.>.e.h.K.Y.P.N.s.<.<.<.-.#.( / / ( &.w.&.#.( ( +.+.",
". . . . . X X 2 N.=X=X{.K.N.k.g.t.e.w.w.;.&.$.@.@.+.$.h./.+X|.B.&.{ ( { ..%.:.<.f.j.J.P.N.<.-.-.-.-.X.( Q Q ! ( &.w.>.#.( ( ( +.",
". . . . . X X v L.{.P.h.:.%.&.$.+.+.} { ^ I N s s y y W B.@X@X^.r.&.$.&.;.<.g.j.j.j.k.j.<.-.X.X.X.X.{ / W Q ^ +.&.e.w.$.+.( ( ' ",
".           X v Z.Y.h.;.#.{ ( ^ ^ W W I N y q < ; ; ; y $.}.$X).B.t.w.w.g.J.P.G.N.j.f.<.-.O.{ { { { / W W W ^ +.w.h.y.&.+.( ' ' ",
"            X c N.U.g.;.+.{ ^ W W I A N s r w ; ; $ $ ; W ^.$X).V.t.h.V.Y.}.{.].G.g.-.X.{ / ~ W / / W W W W ( $.B.^.A.e.#.' ' ' ",
"            . 9 h.K.g.;.+.{ / Q Q W I N s f w ; ; ; $ ; N l.}.).V.h.h.Y.OXoXoX].G.<.X.[ ~ W W W W W W W W Q ' e.^.(.A.e.#.+.' ' ",
"              =  .j.e.;.+.} ( ^ ^ ) Q A k y q w ; ; $ ; y &.W._.C.h.h./.OX=XoX].N.-.[ ~ J Z Z Z Z Z Z Z Z W #.Z.}._.B.w.$.#.#.+.",
"              % c %.<.;.$.+.{ ^ ) } ) U N s y y w ; ; < y ^ l.Q.C.h.h./.OX=XoXY.j.X.~ J Z V V V V V V V V Q e.).}.A.y.w.&.$.$.$.",
"          . . O 6 ~ ;.&.$.} { ( ) ) ) U z d d d y q w q y U 0.z.C.B.V.Y.{.{.Y.N.<.{ J Z V B B B B M M M Z ' A.}.^.y.e.w.&.&.$.$.",
"          . . + > C $.&.$.+.} } ) ) _ U Y z z k d f f y d U 7.i.z.B.J.P.K.M.j.<.X./ J Z V B M M M M M M Q w.A.A.y.&.$.$.&.&.&.&.",
"          . . X # i ( &.&.$.+.+.} ) ^ U Y Y Y Y Y d d Y R 3.8.a.C.C.C.V.h.t.w.-.{ ~ J Z B B M h g g M Z $.l.B.e.#.( ! ( $.&.$.&.",
"          . . X O : M ( $.&.&.$.} ) ) _ ` U U R R E _ 4.5.8.q.c.R.Q.C.V.y.t.t.;.{ ~ W Z B M h p p p B ^ ;.e.w...Q S Z Z S W Q ^ ",
"    . . . . X O @ # : u B Q $.&.+.} ) _ E E E 3.3.5.8.8.q.q.a.v.R.Q.C.B.h.y.t.%.{ ~ W Z B M p u i h W +.#.( Q S Z B M M M M M M ",
"X X X X X X X O @ # # & > u ( &.&.$.| 3.3.3.4.5.8.q.p.p.a.a.v.R.Q.Q.C.l.y.y.e.+./ ~ W V M p u t p Z ( ^ W Z V M h h h g g g g g ",
"@ @ @ @ O X X O O # # # # : W w.e.9.7.4.4.5.8.q.p.a.x.a.x.v.b.E.Q.W.C.B.V.B.;.W W W Z h p i p M Z ^ ^ Z M M h g g g g g p p p p ",
"# # # # @ O O O O @ # # @ & B e.V.h.0.7.7.q.a.x.v.b.b.b.v.v.E.!.~._.^.^./.L...C Z B p u u g Z ! ^ Q Z M p p p p i i i i i i i i ",
"# # # # # O O O O @ @ @ O O u w.(.^.S.q.q.i.R.~.~.!.!.E.E.E.!.`. X|.|.}.}.B.W B v p i u p B W Q T B h p p i u t e e e e 1 e e e ",
"# # # # # # @ @ @ @ @ O O O 1 2.}.}._.C.z.c.~..X.X.X`.`.!.!.`.,X;X;X$X+X^.#.B v a i i i p M M h g i u t t e 1 1 1 1 1 1 1 1 1 1 ",
"# # # # # # # @ O O @ O O + : #.).@X+XW.C.Q..X X#X X X.X`.`..X;X>X>X;X+Xm.J p a 6 t e 1 1 1 1 1 1 1 , , , , , , , , , , , , , , ",
"& # # # & # # # # @ @ O O O @ C U.$X$X).^.). X#X#X#X#X X X|.#X;X:X:X*X(.{ u 1 > : & # # O O O # # # # - - - - - : : : : : : : : ",
"& # # & : - & # # @ @ O O O O 1 r.@X$X+X|. X#X#X#X#X#X#X#X$X*X-X:X:X+X&.6 # O X X X . . . . . X + O O O # # # # # - - - - - : : ",
"# # # & - - & # # @ @ O O O O & J /.$X$X$X$X$X$X*X*X*X*X*X*X*X*X*X$Xm.a @ X     . . . .       . . . X X O O O O @ # # # # & - - ",
"# # # # & & # # # @ @ @ @ @ O O 6 e.+X$X*X*X*X:X>X1X1X1X1X>X:X*X@X/.( & X                               . X X X O O O @ # # # # ",
"# # # # # # # @ # @ @ @ @ @ O X @ J U.$X*X*X:X1X3X3X3X3X2X>X-X=X/.;.u O .                                 . . X X X X O O O @ # ",
"O O @ # # # # @ # # @ O O @ O X . * ( A.@X*X-X:X1X2X2X2X1X*XOXY.>.v # X .                                     . . . . . X O O @ ",
"O O O @ @ # # @ @ @ @ @ @ O O O X X > J e.A.(.{.}.OXOXOX{.P.1.P 6 * X . .                                               . X X o ",
"O O O O O @ @ @ @ @ @ @ @ O O O o X @ & u C ( ..O.X.X.o. .H 6 & O X .                                                   . X X O ",
"O O O O O @ @ @ @ @ @ @ O O O O O X o O O @ & > > > > > & @ X .                                                         . X o O ",
"O O O O O O O O @ @ @ O O O O O O O X X X X X X X X X X . . . .                                                         . X O O ",
"O O O O O O O O O O O O O O O O O O X X X X X X X X X . . . . .                                                         . X O @ ",
"O O O O O + O O O O O O O O X o X X . . . .   . .                                                                       X X O O ",
"O O O O + O O O O O O O X X X X X . . . .                                                                               X X X O "
};
