/* XPM */
static char *_1a8253024da4a86f05c945ff1423ce9175z1ycoZpiiwZGm[] = {
/* columns rows colors chars-per-pixel */
"64 64 256 2 ",
"   c #020103",
".  c #0B0204",
"X  c #04020B",
"o  c #0C040B",
"O  c #09090A",
"+  c #070808",
"@  c #1C0A0B",
"#  c #150607",
"$  c #050313",
"%  c #0B0816",
"&  c #160C17",
"*  c #1A1318",
"=  c #1E100A",
"-  c #260A0A",
";  c #380C09",
":  c #2A120C",
">  c #39140D",
",  c #260D13",
"<  c #271619",
"1  c #381817",
"2  c #300F12",
"3  c #33211C",
"4  c #1A1626",
"5  c #140D28",
"6  c #241C22",
"7  c #271A28",
"8  c #371C27",
"9  c #281D35",
"0  c #371B30",
"q  c #222224",
"w  c #2A252B",
"e  c #3B2424",
"r  c #36262A",
"t  c #2A2536",
"y  c #352B3C",
"u  c #3B2D3C",
"i  c #362635",
"p  c #3B333A",
"a  c #47150D",
"s  c #431A14",
"d  c #4C1B12",
"f  c #461613",
"g  c #531C13",
"h  c #5B1C16",
"j  c #56180E",
"k  c #621D14",
"l  c #492619",
"z  c #5C2415",
"x  c #592619",
"c  c #57331C",
"v  c #632416",
"b  c #632A16",
"n  c #64241A",
"m  c #652C1A",
"M  c #6C2C1A",
"N  c #6A2719",
"B  c #712E1B",
"V  c #6C331C",
"C  c #6E391C",
"Z  c #663319",
"A  c #73341C",
"S  c #79361E",
"D  c #743B1D",
"F  c #7A3A1E",
"G  c #461D23",
"H  c #482928",
"J  c #542B28",
"K  c #4D3429",
"L  c #5A3628",
"P  c #452B36",
"I  c #572B35",
"U  c #48353A",
"Y  c #543A3C",
"T  c #583936",
"R  c #662A25",
"E  c #693725",
"W  c #743521",
"Q  c #743D22",
"!  c #7B3D22",
"~  c #773925",
"^  c #673D38",
"/  c #723332",
"(  c #7B421F",
")  c #76421E",
"_  c #67411F",
"`  c #5A4239",
"'  c #6A4529",
"]  c #764222",
"[  c #7C4223",
"{  c #7C4825",
"}  c #7C442B",
"|  c #77462C",
" . c #684637",
".. c #7C4A33",
"X. c #754837",
"o. c #765339",
"O. c #6F543D",
"+. c #362A43",
"@. c #3C3448",
"#. c #32294F",
"$. c #3F3D61",
"%. c #412D44",
"&. c #443444",
"*. c #453A4C",
"=. c #493847",
"-. c #523D42",
";. c #573A47",
":. c #4B3D52",
">. c #473A57",
",. c #513958",
"<. c #6D3B47",
"1. c #4C3E66",
"2. c #47424B",
"3. c #5C4344",
"4. c #5B4A4B",
"5. c #57444A",
"6. c #4C4458",
"7. c #534354",
"8. c #5B4B5B",
"9. c #574758",
"0. c #59515D",
"q. c #5F5049",
"w. c #644444",
"e. c #634A4C",
"r. c #684848",
"t. c #764B46",
"y. c #6B5348",
"u. c #745B4B",
"i. c #785647",
"p. c #644C54",
"a. c #674C57",
"s. c #754954",
"d. c #6C5353",
"f. c #6A5659",
"g. c #745C5C",
"h. c #775857",
"j. c #7A645A",
"k. c #756253",
"l. c #574B65",
"z. c #5E5365",
"x. c #5A546A",
"c. c #534C71",
"v. c #635463",
"b. c #62546B",
"n. c #695969",
"m. c #765A66",
"M. c #665A77",
"N. c #785C76",
"B. c #684D72",
"V. c #786468",
"C. c #6B6478",
"Z. c #786877",
"A. c #7C727C",
"S. c #70686B",
"D. c #813E24",
"F. c #803F29",
"G. c #833131",
"H. c #814325",
"J. c #824A29",
"K. c #824D38",
"L. c #835339",
"P. c #84532F",
"I. c #865948",
"U. c #855958",
"Y. c #894D4A",
"T. c #88644D",
"R. c #97674A",
"E. c #876858",
"W. c #986B56",
"Q. c #8B715C",
"!. c #9B7358",
"~. c #977348",
"^. c #A4765A",
"/. c #865D77",
"(. c #8E576C",
"). c #856867",
"_. c #966765",
"`. c #887468",
"'. c #977866",
"]. c #866977",
"[. c #897578",
"{. c #957878",
"}. c #966A7B",
"|. c #A57B65",
" X c #AB7078",
".X c #A95B66",
"XX c #8C3C51",
"oX c #98857B",
"OX c #85817F",
"+X c #AB8369",
"@X c #A88876",
"#X c #B38C74",
"$X c #ACA073",
"%X c #6E5B82",
"&X c #776887",
"*X c #7A7486",
"=X c #6E708D",
"-X c #876985",
";X c #8B7D8B",
":X c #877786",
">X c #937B87",
",X c #8A7D94",
"<X c #96748D",
"1X c #A97288",
"2X c #7F98A6",
"3X c #8B818A",
"4X c #97878A",
"5X c #8B8496",
"6X c #988996",
"7X c #9C9695",
"8X c #989380",
"9X c #A78986",
"0X c #A6968A",
"qX c #AA9796",
"wX c #B49B95",
"eX c #B0938D",
"rX c #B7A29B",
"tX c #AFAB96",
"yX c #9C94A5",
"uX c #948BAA",
"iX c #A798AA",
"pX c #AB9BB1",
"aX c #B8A8A7",
"sX c #ADA4B4",
"dX c #B3A9B8",
"fX c #B6B1B4",
"gX c #8DA6AF",
"hX c #C69FA7",
"jX c #C7B4B2",
"kX c #C3A492",
"lX c #D5C6B6",
"zX c #FAF3AE",
"xX c #E2DCAB",
"cX c #B8B5CD",
"vX c #9D93C1",
"bX c #C5BBC7",
"nX c #C8BCD3",
"mX c #C7C3C8",
"MX c #D4C7C8",
"NX c #CBC8D3",
"BX c #DBD4D9",
"VX c #D9CFCF",
"CX c #E5DAD6",
"ZX c #E4D8C6",
"AX c #F2EBD4",
"SX c #C7C8E5",
"DX c #D7D7EF",
"FX c #E5DAE8",
"GX c #E7E5E8",
"HX c #EAE9F6",
"JX c #F1EDF7",
"KX c #F4F4FC",
"LX c #FDFCFD",
"PX c #F5F5F6",
"IX c #F7F2EB",
"UX c #DAE0F0",
/* pixels */
"r p f.>X4X>X>X).g.).g.).hXwX}.MX[.0XAXxXAXLXjX).].}.).E.I.| | | | | } ..| ..L.L.K.L.....L.L.L.I.).MXBXVXLXmX6 f.IXCXCX3X:XA.6XdX",
"* 6 f.f.v.8.].:XV.m.m.s.(.(.}.VXd.$XzXzXIXjX).U.U.s.t...m A V A A A A A M A F ( ( F ( D ! D D ] Y.{.MXFXLX7X  V.LXZXVX*XN.% u :X",
"* < ].N.9.l.n.3X;XZ.].-X9.N.-XdX5.kXzXzXlX)._.h.t.t...A V V V S F ! ~ W S ! ! [ [ [ [ ! Q [ [ [ { i.wXLXIX[.o 4XLXAXMXZ.n.% y f.",
"* < [.A.l.M.b.;X;X:X;X,XA.u *.iXY tXlXlX).U.U. .K.J.A D A A V S F ! S S A F ! [ ( [ { ! [ [ [ { [ ..E.CXLXZ.o fXPXAXNX&Xx.% y 9.",
"& < >X3X>.>.*X;X;X;X;X].%.7 7 :X&.9.v.g.h.U.r.t.L.) [ D A V S F F F ! W D Q [ ( J.[ [ { [ ] { H.[ { ..rXLX0.& BXIXIXcXM.:X3Xn.b.",
"O 6 5X3X9.,.Z.;X>X:XZ.n.9.&.0 n.%.l.n.h.U.t.X.I.] ] } D A A S F F A D A Q { [ [ [ ) [ ] [ [ { ( [ [ ] Q.jXw 6 CXPXLXpXM.&.p M.*X",
"O w 5X4X4X4X].5X6X,XZ.n.*.:.%.9.+.z.h.h.t.X.L...| ] [ A A S S F F S D Q Q ] } [ ) ] D ] ! [ [ [ H.[ [ K.).@ * U 2.2.l.%X9 4 y *.",
"+ t *X=X*X;X:X3XyXyXA.7.+.%.+.&.i a.U.U.^ K.H.Q | { ! ~ S S F F F S D ] ] ] { ] ] ] D Q [ D ] { H.F [ | E.1 r b.>.9 l.M.5 t t 2.",
"+ w C.M.M.%XM.*X6X6XA.l.#.$.c.@.H U.U.X...K.! Q Q Q S S F ! ! F F S D Q ! [ { ] Q [ ! [ { [ { J.[ F ! [ I.T < 9.*.>.l.&X*XC.t 6.",
"  2.aXtX7X7X4X3X6X,X&XM.1.c.%Xi ^ I.t.X.K.[ H.! [ D S ! S F ! ! ! F D J.[ J.{ ] ] ! [ [ { [ { H.[ [ H.Q K.i.< 7 $ % 6.>.i S.z.*X",
"  p OX8X7XtXtX6XuXuX*X%XM.M.B.;.t...| K.J.F H.! ! [ ! D D F [ [ [ ! [ P.[ J.{ [ [ [ H.H.H.H.[ [ [ [ ! ! } I.i 9 $ % c.#.X t 4 Z.",
"O * w w t t t y @.6.2.@.+.@.:.s...~ | } F H.[ [ [ J.H.! [ [ [ [ { [ { ..L.i.I...[ J.J.H.H.H.[ F H.[ [ ! ! Y.5.>.7 y &X+.& +.& v.",
"X V.aX0XA.C.c.z.4.-.7.M.C.6.;.X.H.W } ! F [ [ [ [ ! H.[ ! [ [ [ Q X.Q.0X].m.V.V.i.| [ { [ [ ! [ H.[ [ ! ! K.p.1.,.b.&XN.N.,.8 N.",
"% f.8X8Xz.c.M.Z.4.;.:XnXFXJX9X~ F.V } F F D.D.[ ! [ J.[ [ { [ Q i.[.6X:Xv.Z.9.v.C.j.o.[ ! Q [ H.( ! [ [ ! } ].=X=XuXvXM.-X,XB.<X",
"% 6.x.l.x.x.l.C.6.:.,XiXdXbXI.! A Q ! ! F D.H.D.D { [ ( ) [ E y.[.:XM.C.8.:.7.7.z.S.)...F { [ [ ( [ ! [ ! Q qXSXDXcXcXcXcXSXpXiX",
"4 bXDXNXmXbXsXmXBX6X;X5XsX{.~ D.V [ ! ! ! D.D.D.[ [ ( D [ Q ).A.C.b.l.*.U =.8.9.l.8.S.h.} { { [ [ [ [ [ [ C rXHXDXHXUXDXUXDXSXSX",
"q GXLXLXLXLXLXLXLXLXNXA.[.h.[ A ~ ! ! H.D.! D.D.! [ [ ! E y.Z.z.l.6.+.u &.9.v.x.z.z.n.Z.h.] [ [ H.[ ! ! { C qXKXSXpXpXnXcXyXuXSX",
"q GXLXLXLXLXLXLXLXLXLXGX4XX.} W [ ! F ! ! D.H.D.! H.Q W T ).8.z.l.@.y 0 u 9.z.b.b.9.l.Z.A.i.] [ [ ! [ ! { C 0XLXHXmXbXNXcXcXcXDX",
"q GXLXKXLXLXLXLXLXLXKXLXlX~ F.V [ F ! [ H.H.H.( H.H.D ^ e.{.d.:.*.y y +.@.6.b.n.b.>.6.C.;X[...[ [ [ { Q [ A oXKXHXJXJXHXJXHXUXSX",
"q BXJXHXHXHXJXJXJXJXJXPX@XH.! A F W ! H.H.H.H.[ H.D.E d.9.p.-.U y t i @.*.,.,.,.b.l.6.M.:X6XE.Q ! H.[ ] { C oXHXGXHXHXHXHXHXHXDX",
"q BXJXHXJXJXJXJXJXJXJXGXI.H.v A S V S ! [ ! ! ! F V T m.[.V.7.P r i u u %.9.:.y >.M.l.l.C.;X[. .Q ! [ [ [ Z oXLXKXKXKXKXKXKXPXLX",
"w GXKXKXKXKXKXKXJXJXLXMX} ~ z A A A S F D.F ! S S E ` p.a.&.&.=.:.&.:.=.i y *.*.@.6.x.z.n.5X6X[.E.~ ! ! { Z oXLXKXPXPXKXKXKXGXCX",
"* 7XcXfXaXdXfXfXmXMXCX@XW W m W A A A F ! ! A V c T p.7.+.@.=.5.7.6.:.u y i P 5.9.6.l.M.C.*X5XyXiX{.E D ] Z 0XLXKXPXLXLXLXLXIXCX",
". * 0.q.: * 6 ` j.`.{.X.S M W S A A D F S S M z L g.7.+.@.@.&.8.v.7.:.*.9.=.H 3.9.:.9.x.C.*X5XiXdXaXQ.] [ Z qXLXPXKXKXLXLXLXLXPX",
"O   < e = & r O.j.E.E.Q S m V S A A D F ! A b d  .f.%.&.&.*.6.n.z.n.v.5.4.5.K w.:.l.b.C.*X*X5XiXpXpXjXT.C E aXLXLXLXLXLXLXLXLXLX",
"O   . - # 7 -.u.E.Q.T.D A z V A A F F A W M z ; J n.9.8.:.:.b.9.7.8.a.5.q.e.e.;.7.n.Z.*X5X5X&XuXsX,X5X7XT.Z eXcXyXdXcXdXdXbXmXbX",
"O   + . o y 4.u.E.Q.i.V M m W A ! D F A A b g ; K Z.*Xz.6.6.z.0.4.a.d.3.` d.d.9.a.).9XqX*X*X&XZ.6XyX*X3XwXT.rX6.$ #.c.%X%XN.N.Z.",
"O   + . o +.5.u.Q.Q.X.B N m D A D D S S M n f > K `.[.S.6.2.8.4.4.f.3.` Y u.V.l.g.'.v.[.Z.C.C.Z.-X6XsX:XA.{.aXw $ 5 9 $.B.&X-X&X",
"O       4 l.z.V.[.`.^ M m m A B V A A A M z > T K j.8XS.9.9.5.` g.` ` Y 3.t.f.6.{.j.0 Z.b.M.C.n.Z.N.Z.6X:Xm.5.% X $ $ $ 5 $.B.&X",
"O   . . 4 t 6 6 < 1 x M z Z M M V A V M m g s u.H y.oXA.n.7.Y d.p.` Y U d.h.p.:.`.'.Y 5.6.M.n.V.4XZ.[.4X7X[.*   X X X X $ $ 5 #.",
"O O O . r w.T K H J n N z V M M M B B M n d l j.L  .`.4Xv.4.4.n.` T P Y u.d.p.5.2.Y T &.*.v.;XV.[.>X].3XiXaX).            X X $ ",
"+   . # e L x l s s n N z V M B M M B N n ; L `.`  .E.`.p.f.m.d.L K P 3.w.d.).V.9.=.i u 5.].[.Z.:X,X:X,X,XqXjXU             X $ ",
"O   . # H  .J s - s n v b W B M A M B M h f '.oXy. .u.u.f.y.j.d.T H P ` 3.g.4X0Xm.8.6.;.E.).{.].-X:X:X,X:XA.m.v.              $ ",
"O O @ 1 w.h.T 1 2 l n k b ! A B B W B N g l eX@XE.X.i.u.y.y.j.e.T I -.3.f.V.[.).d.V.n.w.i.`.'.h.e =.[.6X6X[.m.8.w   X X       X ",
"& t p 5.m.U.I - s d v z b S A A A W m n g s @XeXQ.o.i.y.y.`.j.e.K K r.y.V.j.j.k.g.V.5. .t.E.u.e.a.n.[.>XsX3X3X5X6Xe.. X       X ",
"% % % * m.4XY l s d n h m S A V A A M n g ; E.kX@XE.o.k.`.`.f.d.` l k.Q.u.o.O.u.E.f.d.u.e.Y h.[.>X4X{.].].p.e.j.j.9X5.          ",
"O   & r f.>XZ.8 # > n h m S A A W V M v g ;  .eXwX'.o.T.'.Q.f.p.d.c o.!.o.' c y.u.j.Q.y.p.V.{.{.U.t.I I J I I l c ' g.&         ",
"O   @ e 3.m.>Xr . s n h m ~ A W A m M N h ;  .#XeX+XR.i.T.Q.d.4.5.T c ' Z c  .k.'.!.u.e.j.`.U.R R / XX(.(.1XY.E !.c  .e         ",
"% . @ < Y w. .< . > v h n S A ~ A B A N z a E @X#X@X!.T.Q.T.y.3.5.` ' C c l  .|.W.y.e.u._.^ n G..X.X X X1X1XU.x !.'  .T         ",
"O O < < P ;.;.< . 2 n h n W S S A A W M v a d |.#X#X+X'.E.k.i.y.9.4. ._ _ L i.!. .y.3.Q.t.j S Y..X_._. X1XeXeXL ' Q  .T         ",
"O 3 r & 7 %.0 o   - n h x ~ A A B A A M v g a I.+X#X#X|.E.k.O.y.f.g.u.' o.O.u.o. .w.u.i.z / K.L.#XeXwXjXjXMXCXe.L I.E  ..       ",
"* 3X[.6 0 =.< @ < 1 n k z ! S A A A A N n z d x |.+X@X+X!.E.T.i.V.[.k.y.o.i.O. .i.r.T.X.U.'.9X@XjXlXlXZXCXVXaXH L E.' ^ .       ",
"q JXBX5.0 H 2 H e.w.z k v S A M A A V M N z g a K.+X+X#X^.!.T.' o.'.).g.u.i. .X. .o.' 2 T T g.j.'.`.d.V.).w., 1 J E.t.L .       ",
"q GXBXa.P P 1 3.V.e.x k v S A W V A A N N z h d x !.+X+X#X^.W.I.P.I.).{.[.u.' E L L.l > 1 . @ : Z ;   . > l e l J ).i.T .       ",
"q JXMX;.r e 8 m.N.a.J k h W A W V A A V N v n z a K.+X|.|.+X!.L.R.!.T.{.{.O.' J X.X.- E 2 , @ 1 x - o 3 '  .U H w.E. .T .       ",
"4 yXA.y i 9 7 y 0 6 1 n j b W V C A D S M N N z g z R.+X|.^.^.R.~.~.L.T.Q.' ' Z X.< 2 E @ 1 . l 1 . @ c L ` Y H d.t.T r         ",
"& :.@.w r r 7 7 8 < 2 n g b A V D ! S M M B m b n g E |.^.^.^.R.^.^.!.W.T.c c ' 3   J l . : . : @   : L T T I Y y.t.e X         ",
"q FX6X5.-.T T <.r.T J x g z V Z D Q A M M M m b b z d / ^.^.^.!.W.^.#X@X!.J c ..@   1 @ o < o @ . @ ` y.e.e.e.w. .O.<   X       ",
"q GX[.P i < 8 <.s.r.w.x h g Z C Q Q C V V M b m V z x d ^ ^.^.!.I.R.+X@X'. .c Q e . : . , , . # . K `.g.f.f.f.T  .o.*   X       ",
"q VX].=.;.0 Y m.m.m.g.1 h a m D Q A C V V A m V m z z z z ~ W.R.R.R.W.#X+XR...E  .: - @ : # @ # 2 u.E.e.d.f.p.I '  .#   X       ",
"w VXV.,.;.P a.(.s.m.f.# g g x [ D D A D V m M V m n z z m x Q R.R.I.L.|.+X!.W.T.t.J < , : < 8 - R R E.0Xh.d.e.H E i.* o o . o o ",
"q aXd.=.;.H m.].m.).f.. f g d Q D D D D V m V V b N m v v m x Q R.W.R.R.|.'.!.Q.i._.6Xe : i e : h n T.qXh.d.Y H L h.f.].V.d.e.5.",
"q 8Xd.I T P ].].m.].f.. 2 d a V Q W C C V V E m v m b b b m m z m K.R.R.R.+X|.Q.I.E.rXj.e 0 , 2 g n i.wXh.;.K l T P * Y V.{.{.].",
"w rXp.H H P ).]./.>Xe.& e f a l W A C C V C V m m n b b m b m m m b D P.I.'.|.!.I.t.U.rXg.8 8 1 g h i.wXs.T K K y.u X X . < =.v.",
"w 9X3.H H P [.}./.>X4.6 4.H g f V ! Q D A C m b n z b b Z V V m m V D D } W.|.!.T.X.^ 0X4Xe , K x z  .rXs.H T  .g.:.9 4 & X   o ",
"q [.w.I J U {./.-X6XY 7 [.g.J f g Q D D C C V b b n b V C C V V V V D ! D P.!.W.R.I.R ^ rX[.2 l m z X.aXs.G  .y.a.>.#.t 5 5 %   ",
"6 [.m.e.K Y [./.-X6Xp t >Xm.r.J f x Q C D C V m V m Z C D ] D C C C C F [ D L.W.R.E.s.R t.rX`.l g R '.rX<.J y.4.7 +.+.t 9 % X X ",
"6 ).I I I ;.]./.].6Xw 9.>Xm.d.d.J a E Q C V V V W m C D Q { ] Q D C C F F F Q L.R.X.d.U./ t.wX9X@XeXhX1Xs. .p.8.>.y +.,.l.t $ $ ",
"< m.H G G -.]././.6X6 v.6X:Xf.m.s.s a E W V V D A V C ] [ [ ] ] D D D S ! ! E T h.T.K m.(.Y.t.U. X}.1X1Xs.3.&.y l.l.&.+.6.>.4 $ ",
"< g.P P P 5.}.].].4X< b.6X4XZ.m.>Xw.s f E E V C V V W Q ] ) ] ] D Q C Q V l e.M.l.w.H e m.-X1X1X}.(.1X/.e.5.y 9 9 &.*.&.t t t % ",
"< g.V.n.4.m.-X-X<X4X* C.Z.Z.l.n.p.U 1 ; a x E V V m E V C ] D C [ ~ Q L  .7.y #.+.7 u 1 e p.m.N.-X<Xa.U 4.@.@.2.:.i 7 &.4 t @.% ",
"* 9.8.:.u i 0 7 7 6 O * & & & * * * < e 1 ; d R R m E Q D [ { ! V Z l H }.,X6.c.c.@.9 5 < < -.q.-.=.i P +.+.@.z.v.v.7.4 & % 4 X ",
"& 6 * 4 7 r i u 2.=.& 8.[.4XA.;X[.[.{.m.< 1 1 ; f f d x c Z c J t.[.i < ].&Xc.=XgXl.c.$.t   u 7.U @.*.*.9.C.C.C.;XA.,X*.7 % $   ",
"* 5.i U =.d.m.].4Xm.7 n.>XiX;X6X4XqX9Xe.& U r U ].g.r.r.T Y f.[.jXjXi 7 qXpX=X2X=Xx.c.&Xy   6.*X0.0.x.*.Z.*X*X*X;X3X,XZ.2.4 &   "
};
