/* XPM */
static char *f1464dcbea1049fbee1c9aa78b78782dGSQW11oP3YpwxlgN[] = {
/* columns rows colors chars-per-pixel */
"64 64 256 2 ",
"   c #0A0605",
".  c #0A0906",
"X  c #0D0B0A",
"o  c #070606",
"O  c #120D0C",
"+  c #170B0A",
"@  c #13110E",
"#  c #1A110F",
"$  c #120F10",
"%  c #180F10",
"&  c #151313",
"*  c #1A1615",
"=  c #1B1817",
"-  c #191719",
";  c #1C191A",
":  c #171518",
">  c #0D0D10",
",  c #241A17",
"<  c #231C1B",
"1  c #291D1B",
"2  c #221614",
"3  c #2F1813",
"4  c #29211E",
"5  c #37261E",
"6  c #1F1E21",
"7  c #2B1F22",
"8  c #2C2422",
"9  c #2B2725",
"0  c #342A24",
"q  c #332D2A",
"w  c #392A25",
"e  c #3E312B",
"r  c #3A312B",
"t  c #3E3A36",
"y  c #393432",
"u  c #312F31",
"i  c #46241D",
"p  c #452B25",
"a  c #43332C",
"s  c #4B342B",
"d  c #4A3529",
"f  c #56392B",
"g  c #4D3B33",
"h  c #433D3A",
"j  c #483B37",
"k  c #533C33",
"l  c #583C36",
"z  c #552E26",
"x  c #68372B",
"c  c #673D33",
"v  c #4E1E1A",
"b  c #4A433B",
"n  c #53433B",
"m  c #58473A",
"M  c #5F4C37",
"N  c #614B3D",
"B  c #684739",
"V  c #7A4B3B",
"C  c #77533C",
"Z  c #6C503E",
"A  c #4A4642",
"S  c #574B44",
"D  c #5B5247",
"F  c #644D43",
"G  c #6B4F43",
"H  c #6C5344",
"J  c #675749",
"K  c #735444",
"L  c #755B4C",
"P  c #7C5D4B",
"I  c #795945",
"U  c #665853",
"Y  c #775E53",
"T  c #734E42",
"R  c #79634C",
"E  c #6C6457",
"W  c #7C6454",
"Q  c #7D6B5C",
"!  c #786759",
"~  c #6B624C",
"^  c #776C64",
"/  c #7A716A",
"(  c #85533D",
")  c #8B4F3A",
"_  c #885946",
"`  c #975C48",
"'  c #8F5E53",
"]  c #84634D",
"[  c #876449",
"{  c #966449",
"}  c #846552",
"|  c #846B5B",
" . c #8C6A5C",
".. c #856757",
"X. c #9C6D54",
"o. c #966B55",
"O. c #87725D",
"+. c #987359",
"@. c #A66D5A",
"#. c #A47355",
"$. c #A3755D",
"%. c #A47A5D",
"&. c #AB7C5C",
"*. c #A97558",
"=. c #B37B5B",
"-. c #AC734E",
";. c #836E61",
":. c #8B6E61",
">. c #847364",
",. c #85756A",
"<. c #857A6D",
"1. c #8B7A6C",
"2. c #8A7767",
"3. c #9A7A65",
"4. c #987965",
"5. c #857A73",
"6. c #8A7D73",
"7. c #867A76",
"8. c #94786E",
"9. c #A47C64",
"0. c #AC7C64",
"q. c #A87867",
"w. c #B27D63",
"e. c #B6796A",
"r. c #B77C76",
"t. c #AD6E66",
"y. c #A05D42",
"u. c #C1786B",
"i. c #AA825A",
"p. c #B2845B",
"a. c #9A826D",
"s. c #8C8174",
"d. c #8D837A",
"f. c #8C8A7B",
"g. c #91857C",
"h. c #93887E",
"j. c #988675",
"k. c #9B907D",
"l. c #8E816D",
"z. c #AC8265",
"x. c #A4836B",
"c. c #AC846C",
"v. c #A9876B",
"b. c #B48365",
"n. c #B98364",
"m. c #B3856C",
"M. c #BA856B",
"N. c #B3896C",
"B. c #BC8A6C",
"V. c #B78B63",
"C. c #A58574",
"Z. c #AC8673",
"A. c #AD8973",
"S. c #AD8B7B",
"D. c #A58A7A",
"F. c #B38571",
"G. c #B48B73",
"H. c #BB8C74",
"J. c #B38D7B",
"K. c #BB8D7C",
"L. c #B98575",
"P. c #AB937E",
"I. c #B6927C",
"U. c #BC927C",
"Y. c #BA9377",
"T. c #BD9564",
"R. c #C28876",
"E. c #C3937C",
"W. c #C69579",
"Q. c #C78F6A",
"!. c #CDA779",
"~. c #958B83",
"^. c #998E84",
"/. c #978C87",
"(. c #9C9185",
"). c #9D928B",
"_. c #989288",
"`. c #968F89",
"'. c #A29484",
"]. c #A2968C",
"[. c #A49A8D",
"{. c #AA9C8D",
"}. c #A99683",
"|. c #B49383",
" X c #BC9484",
".X c #BC9A84",
"XX c #BC9B8B",
"oX c #B5998A",
"OX c #A59B91",
"+X c #A99E93",
"@X c #A19691",
"#X c #BB9B92",
"$X c #B68C85",
"%X c #B8A28D",
"&X c #ADA295",
"*X c #AEA499",
"=X c #AFA99A",
"-X c #B2A495",
";X c #B1A69A",
":X c #B5AA9B",
">X c #B9AD9D",
",X c #B9A795",
"<X c #B5AB96",
"1X c #B6ACA3",
"2X c #BCAEA5",
"3X c #BDAEA9",
"4X c #BDB1A5",
"5X c #BEB4A9",
"6X c #BEB8A9",
"7X c #B6B2A5",
"8X c #BEB9B2",
"9X c #C68984",
"0X c #C39583",
"qX c #CC9383",
"wX c #C39B84",
"eX c #C49C8C",
"rX c #CB9D8A",
"tX c #C99887",
"yX c #D49C88",
"uX c #C59C92",
"iX c #C99B92",
"pX c #D69E93",
"aX c #C5A38D",
"sX c #CBA28B",
"dX c #C9A48A",
"fX c #D4A38D",
"gX c #D9A68C",
"hX c #C4A494",
"jX c #CBA393",
"kX c #C8AA97",
"lX c #D3A593",
"zX c #D6AB93",
"xX c #DCAA94",
"cX c #D9A797",
"vX c #D2B696",
"bX c #E3A993",
"nX c #E3AF96",
"mX c #C0AEA6",
"MX c #CBADA0",
"NX c #C1B4A5",
"BX c #C2B5AA",
"VX c #C2B9AD",
"CX c #C5BAAF",
"ZX c #C5BAAD",
"AX c #C4BAAB",
"SX c #C8BAA9",
"DX c #D1B9AD",
"FX c #C5BBB1",
"GX c #C9BCB2",
"HX c #CBC2B4",
"JX c #CCC6BB",
"KX c #D2C8BB",
"LX c #CDC0AB",
"PX c #D6D3C9",
"IX c #D2CDC5",
"UX c #E7E2DA",
/* pixels */
"1X1X2X2X4X4X5X4X5X5X5XNXBX6X6XVXVXVXVXZXZXZXZXFXZXZXZXZXZXBXBXBXBXBXBXBXBXBXBXBXNXNX5XBX5X2X5X3X3X2X5X2X2X2X2X1X2X2X1X1X1X2X1X1X",
"1X1X4X1X4X4X4X5X5X5X5X5X6X6X6XVXVXVXVXZXZXZXZXZXZXZXZXZXZXBXBXBXBXBXBXBXBXBXBXBXNXNXBXBX5X2X5X3X3X2X5X2X2X2X2X2X2X2X1X1X1X2X1X1X",
"1X4X4X1X4X4X4X5X5X5X5X5X5XBXVXVXVXVXZXZXZXZXZXZXZXZXZXBXBXBXBXBXBXBXBXBXBXBXBXBXBXNX5X5X5X5XNXmXmX2X2X2X2X2X2X2X2X2X1X1X1X1X1X1X",
"4X4X4X4X4X4X5X5X5X5XBXBXBXBXVXVXZXZXZXZXZXZXZXZXZXZXZXBXBXBXBXBXBXBXBXBXBXBXBXBXBXNX5XNX5X5XNXmXmX2X2X2X3X2X2X2X2X1X1X1X1X1X1X1X",
"4X4X4X4X2X5X4X5X5X5X5XBXBXVXVXVXZXZXZXZXZXZXZXZXZXZXAXBXBXNXBXBXNX5X5XBXBXNXBXNXBXNXNXNX2X2X2X2XmXmX2X2X2X3X2X2X2X2X2X2X1X1X1X1X",
"1X4X4X5X4X4X5X5X5XNXVXVXVXVXZXZXZXZXZXZXFXFXZXZXZXZXAXBXBXVXNXkXcXjXhX>XNXBXNXNXBXNX5X2X2XmX2X2X2XmX2X2X2X3X2X2X2X2X2X2X1X2X1X1X",
"5X5X5X5X5X4X5X5XBX5XBXVXVXVXZXZXZXZXZXZXFXFXZXZXZXZXBXBXNXkXrXE.G.fXjXaX,XmXNXNXNX5X5X2X2X2X2X2X2XmX2X2X2X2X2X2X2X2X2X2X1X1X1X1X",
"FXFXVXCXVX6XVXBXVXVXVXVXAXCXAXCXZXZXZXZXFXZXZXVXZXAXBX6XMX0X} F n D.kXaX{.oX4X5XNX5X4X5X2X2X2X2X2X2X2X2X2X2X2X2X2X3X2X1X1X1X1X1X",
"NXAXZXCXGX4XGXHXHXHXHXHXGXHXHXFXFXFXZXCXZXZXZXVXZXBXBXMXJ.E h b b U -XhXhXoX:XNXNX4X4X4X5X2X2X2X2X2X2XmX2X2X2X2X2X3X1X2X1X2X1X1X",
"^.(.(.'.'.j.[.-X<X>X4XAXAXHXHXHXHXHXHXHXHXHXGXFXCXVXZXC.D b h j b n '.hXjXoX{.BX2X4X4X4X2X2X2X2X2X2X2X2X2X2X2X2X2X2X2X2X2X2X1X1X",
"&X;X;X;X+XOX(.).(.(.(.(.(.'.[.[.{.<X<X>X4XNXAXAXNXCXk.J S b h h S D ,.MXrXrXoXmXNX5X4X5X5X4X5X2X2X2X2X2X2X2X2X2X2X2X2X2X1X1X1X1X",
"S U E / 7.^.OX;X1X1X1X1X1X;X*X&XOX[.'.k.(.(.k.'.D.1.R W L m D D D D S |.W.cXuX,XNXBXNXBXBXBXBX5X5X5XBXBXBXBXBX5X5X5X2X2X1X1X1X1X",
"t t t t h S ^ s.h.).OX&X;X1X1X5X5XVXFXFX5X4X5XOXQ W ~ D N J b m F n g A.fXcXjXuX{.{.%X,X:X>X4XNXNXAXZXGXGXGXGXFXZXZXVXBXBX5X2X1X",
"t h b A A U 5./.).[.{.{.{.+X&X&X&X*X;X;X:X7X1XE ~ ~ b t m ! D F >.^ W J.pXxXcXlX.X1.1.2.2.l.s.j.k.'.}.{.&X-X:X>X2X5XBXBXVXBXVXVX",
"t t h A A E d.).[.{.{.&X&X;X:X:X>X:X:X:X:X:XU m J m S m D ! l.4.j.s.O.F.yXxXnXxXwXdXeX|.k.6.s.d.s.6.6.1.1.6.6.s.s.s.s.j.j.'.'.}.",
"y t h A S Q ^.[.{.{.{.&X-X;X:X>X>X>X>X>XNX<.b ~ Q >.Q ! b s.2.a.D.'.a.$.tXgXxXyXqXzXxXfXsXD.J U E ! / ,.,.5.5.6.6.1.1.1.,.<.>.,.",
"y t h A D <.].{.{.&X&X-X-X:X:X:X>X>X>X4X<XS J ! E E ~ O.^ k.O.k.].[.3.#.W.xXbXyXqXfXzXyXqXsX .w w e a g k n m m n n n S U U E ^ ",
"u y h A U h.+X&X&X-X-X-X-X:X>X>X>X>X>XNX[.b <.j.f.~ ! s.j.,.[.=X[.k.+.#.yXnXbXgXyXyXlXjXrXwXsXF e a a s a a a r 0 , * , < < , 9 ",
"q y h A ^ ).&X-X-X-X-X-X-X:X4X4X5XNX4X5X'.H  .+.8.j.l.6.h.@XFX(.'.}.x.M.bXbXgXbXgXfXzXaXG.H.wX:.r s a s a a e w 0 1 < 8 8 < < < ",
"q y t D s.{.-X:X:X:X:X:X:X>X4X4X4X4XNXVXDXDXW.-.-.X.C.D.a.j.).&X{.}.G.gXgXxXxXnXgXzXxXdX0.&.E.S.g r a a a w 0 0 4 , , 8 < < < < ",
"q y t U (.-X:X:X:X>X:X:X:X>X4XVXZXKXPXPXIXJX%X-.-.X.3.%XP.}.-XNXoX|.0XgXxXxXxXxXxXxXzXsXA.$.H.sX .s e a w 0 0 8 4 1 < 8 < = ; < ",
"q y b ! ].-X:X>X>X:X:X>XBXHXHXFXJXKXJX8X:XoX|.x.3.D.#X-X-X,XkXkX|.q.qXcXcXcXxXfXzXzXfXtXJ.a.9.W.aX..8 0 0 8 8 8 4 < < 8 < = = < ",
"9 y S ,.[.-X;X>X5XFXKXIXPXIXFX1X7X7X,XI.K.q. .| j.P.%X,X{.{.%X|. .0.yXcXxXzXzXfXxXlXzXrXU.a.C.X.tX.XQ 0 8 8 4 4 , ; ; 8 < ; ; ; ",
"9 u S / '.&XFXKXPXPXIXJX6X1X1X:X4XMXp.#.W.9.! k.-X,X{.[.'.C.o.o.t.W.cXcXlXzXkXlXlXfXsXqXH.x.Z.` ) aX%X;.1 < 4 1 , = < 8 = * * * ",
"D E ^ / d.Q :XIX8X4X;X*X-X:X>XkXW.*.) X.B.R.m.q.3. .}  . .' @.L.qXyXpXgXzXeXuXrXtXyX0XW.E.m.A...v ( dX.X>.5 2 , * & * < = = * = ",
"~.VXKXIXPX;X8.FX4X;XOXOX+X-XaXH.y.) ) ` G.m.B.e.@.` ` ` @.R.qXqXtXtXtXrXwX.XrXE.0X0X0X0XY.F.m...i x *.dXaXS.w = - q < & & = * = ",
"<.~.:XZXJXKXVXPXUXUXUXUXBXhX0.) ) ' _ ` B.m.b.H.R.M.e.e.t.e.e.M.L.K.0X0XwX.X.X XwX0XE.W.Y.m.m. .i x _ H.sXaX|.r $ 9 = X O O O @ ",
"7.~.*XNXNXAXGXGXLXHXKXDXeX3.o.o.o.o.X._ w.B.0.c.m.b.w.w.w.n.M.m.U.0X0XU.0X XU. XU.U.E.B.B.m.H.P 5 x _ { 0XjXjXD.O X . X X . . X ",
"/.).OX5XBXAXAXAXZXGXSXjXK.9.G.C.S.v.+.3.c.m.c.z.G.G.H.G.m.M.R.H.0XwXwX0X0X XI. XK.K.G.M.M.M.M._ i z V o.3.iXlXcXU   O X . . . . ",
").).].:X2XNXNXNXNXAXNXuX0XH.c.S.A.X.$.J.m.b.c.m.G.m.M.B.M.M.Q.R.E.U.wXE.Y.Y.G.m.F.H.m.M.M.b.n.` V x V o.9.q.fXlXXX, X X . . . . ",
").).).+X:X>X4XNXNXVXNXuX9XH.G.%.9.9.Y.I.m.n.0.0.c.b.n.=.n.M.n.R.B.B.R.H.H.G.F.c.F.m.N.M.e.w.w.@.` ' _ X.$.@.M.yXlXS o X . .     ",
"^.(.).OX;X>X>XNXNXVXSX#XuX X9.Y..XG.wX.XY.n.b.9.&.&.=.=.b.m.G.H.B.B.B.B.m.m.e.0.0.0.m.e.e.q.=.*.X.9.X.X.t.t.t.yXpX... X         ",
"(.).].OX&X>X>X4X4XNXAX,X#XoXS.0.b.K.eXaXaXz.#.0.&.*.&.b.m.m.J.J.M.M.B.m.N.m.m.c.c.0.9.&.*.*.=.#.c.J.A.o.@.@.M.pX9X..  .         ",
").).].OX&X4XNXNXNXBXAXSXXXK.oXq.W.0XhXaXaXG.{ &.%.*.b.m.b.m.c.G.F.w.b.V.B.m.w.0.9.$.$.q.w.Q.=.*.K.|.J.+.` e.qXqX9XU * O . . . . ",
").).].OX;X2X>X4X4XNXNXAX#Xq.kXZ.0XyX.XkX.XY.X.X.c.&.z.z.z.N.N.G.G.m.V.V.H.m.0.*.#.#.&.n.Q.b.*.Y.oXoX$XX.0.iXiXyXq.0 u & & & & $ ",
"[.).OX+X;X:X:X:X:X>X>X4X,XoXkXJ.I.fX XhX|.G.+._ $.z.b.b.0.c.m.c.A.J.F.N.G.G.m.0.0.b.m.M.n.X.H.eXoX|.C.q.0XiXiX$Xp O & @ & & & & ",
"[.OXOXOX*X:X:X:X:X:X>X:X>X>XoX0XA.rX0X#X|.v.9.[ { z.&.&.m.m.0.9.A.G.G.G.N.n.N.b.0.0.z.0._ z.eXXX0XR.F.eXuX#XS.a o 8 X . . . X X ",
"OXOXOXOX&X;X;X;X;X:X>X>X>X:XJ.R.L.K.L.S.S.x.a.o.C _ *.b.N.z.%.c.v.c.N.H.G.V.b.&.0.9.%._ ( Y. XR.R.r.eXjX9X:.7   @ < X X . X X . ",
"+XOXOXOX&X&X;X:X;X=X:X>X>X-XP.0Xm.$Xe.9.C.x.x.+.W l _ &.0.z.z.N.G.c.m.G.F.b.&.*.*.#.{ x X.Y.H.u.t. XjXS.q.k o O O ; X X X X X X ",
"OXOXOX+X*X*X;X:X:X:X>X>X>X-X|.eXK.F.q.3.C.x.x.+.F a B #.&.m.0.c.G.A.c.b.p.&.#.#.{ { c B c.H.u.e.R.lXZ.3.3.e X . @ < O O X X X X ",
"OXOXOXOX&X*X;X-X-X-X:X:X-X-X.X X$Xt.9.C.C.x.4.K k p ( &.%.z.m.b.*.z.z.&.&.&.#.X.{ V p K R.R.e.R.9Xr.9.C.:., X   * 9 O O X X O O ",
"OXOXOXOX+X*X;X;X-X:X:X:X:X-XoXJ.t.t.A.S.Z.x.K g p d { =.=.z.N.0.%.&.%.0.&.*.X.` ( B p @.u.e.qX9Xt.3.a.C.S @ >   * 9 X O X X X O ",
"OX[.OXOX&X&X-X:X>X4X>X>X-X&XoXr.t.M.I.S.x.I f s p d ( =.n.&.N.b.%.%.z.0.&.#.{ _ V z B R.r.9XF.3.3.9.x.3.0 & >   = < O O O @ O X ",
"OXOXOX+X+X&X&X:X;X*X;X:X;X&X-XK.0X.XJ.J.} g g s d s B &.W.Q.=.0.X.%.0.z.&.#.{ _ c 3 ' t.r.J.3.3.Z.C.C.K , = X   < < O O O @ O O ",
"OXOX+X+X+X&X&X:X>X:X:X-X:X;X-XjXjXU.A.v.N g s d k n N _ t._ _ b.H.0.#.C I I f p 2 g q.t. XP.Z.S.S.D.2.s , * O . 9 < $ & $ $ $ O ",
"].OX+XOX&X+X&X:X:X:X;X;X;X*X&XhXjXK.m.4.k k s n N N N Z B c C o.%.{ B.B s s w 0 4 :.uXeXhXXX|.|.P.j.H w < & X X 8 4 = - = : & & ",
"[.&X+XOXOX+X*X-X&X;X*X&X+X&X*XoXsXU.m...g g n F H H F H _ _ _ I K Z I B m l k e H eXjXjXhXhXXX|.C.} p 0 < @ X X 8 4 - ; - - - - ",
"OXOX[.OXOX;X;X;X*X*X&X&X&X&X{.wXsX.Xc.} g k N H L L H H I W ] } P K K K Z N f B F.rXjXuXuXoXoXS.4.p # 8 ; $ . O 9 ; - - - - - - ",
").@X].OX+X*X&X+X+X+XOXOXOX[.XXjXeXI.%.T g n H L W L H K I P ] ] P I I I K Z I H.tXiXjXeXXX|.|.4.d + @ 1 2 O . O 9 ; - - ; - - - ",
").@X@X@X+X+X+X+X[.OX[.OXOX[.wXeXU.x.%.Z f N L Q | W L L I P ] ] ] P ] P I o.Y.rXtXtXeXXXoXS...5 + + @ 1 * O X & 9 ; = = - ; - - ",
").).).OX+X+X+XOXOXOX@XOX).|.kXkX.Xx.A.Z l K ..1.6.| W Y L P ] } ] ] ] ] 9.G.U.E.R.0X.X|.4.l # O @ # * 1 & O O = 9 - - - ; - - - ",
").).).).).@XOX[.].].@X@X].XXLXkXN.G.N.B m I  .j.j.O.} } W W } } ] R [ N..X.XU.Y.b.3.P l 1 # * 2 * * , 1 & O X ; q - - ; - - - - ",
"/.).).).).).).).^.^.).`.'.I.dXW.=.V.i.M B W 8.3.4.1...| | } ..} ] I %.!.,XhXY.H.G.s 3 1 1 1 1 , , , 7 < O O O < 9 = ; ; - = = - ",
"^.(.).).).).^././././.(.}..XfX!.i.V.[ f I | j.3.+.2.| | | | ..} } ] T.!.vXDXA.Y.+.5 w 5 8 8 4 8 8 8 8 ; O X X 8 9 = = ; ; = = - ",
"/.).).`.)./././././.^./.D.C.oXY.p.i.M F W 1.j.4.+.4.>.| | | ..} ] +.Q.!.vXaXm.J.H 4 e w 0 q q 0 w 0 9 * O X O 9 8 : = ; ; = = - ",
"/./.^.~././././.~.~.~./.h.! | a.A.+.H W | g.^.j.j.l.,.>.| | | } } i.Q.!.gXY.B.4.a 0 a a e e e y e a 9 * O O O 9 4 : = - - - - : ",
"/./.~.~.~.~.~.~.~.~.~.~.g.Y ! ,.>.] | | 1.~./.^.^.g.1.>.>.| | | | i.Q.gX!.G.c.F w g n g g g g j j a 8 * O X O 9 ; = = = - - - - ",
"/.~.~.~.~.~.d.d.d.~.~.~.g.;.L ! ,.O.2.6.g./.(.).~.g.1.1.>.>.| | | +.A.Y.N.z.+.a j F F F S S m S m h < % X X & 9 ; - - = - = = : ",
"/.~.h.g.d.d.s.d.d.d.~.~.d.s.^ ! Q 1.d.d.h._.).(.~.g.s.1.>.;.| | >.W W | ] i.] a F L L H G F F F F h ; & X X = 9 = - - - - = : = ",
"~.g.g.d.s.s.s.s.s.s.s.d.d.d.5./ >.g.h.h./.(.(.^.~.g.d.s.1.>.>.>.;.O.W F H I n J W W L H H H H J J j * O O X ; 9 : - = - = = - - ",
"g.g.d.s.6.7.7.6.7.7.d.d.d.d.d.s.s.h.~.~.~.^.^.^.~.g.d.s.1.>.>.>.>.:.L S J S J | Q Q W L L L W ! W a & O X O < 9 : = : = = : - - ",
"h.d.s.7.5.5.5.7.5.7.s.6.d.d.d.g.h.~.~.~././.^.~.~.h.d.s.<.,.2.2.1.1.Q J J Q | O.>.| Q Y W W ! W ! w & O O O < 8 : = = : : = : : ",
"d.d.6.5.5.5.5.5.<.5.7.7.d.d.d.g.g.h.~./.~.~.~.~.~.g.d.s.5.5.1.1.6.1.2.>.;.>.>.>.>.>.| Q | Q ! Q E 9 & O O O < 6 - = = : - = : : ",
"d.7.5.5.5./ / 5.5.5.5.7.s.d.d.d.g.h.h.~./.~.~.~.~.g.d.s.6.6.6.1.1.1.1.1.1.1.2.,.,.>.>.;.| Q Q Q J < @ O O @ < 6 - - = - - : = - "
};
